<svg version="1.1" xmlns="http://www.w3.org/2000/svg" xmlns:xlink="http://www.w3.org/1999/xlink" width="26.50508" height="26" viewBox="0,0,26.50508,26"><g transform="translate(-226.74746,-167)"><g data-paper-data="{&quot;isPaintingLayer&quot;:true}" fill="#000000" fill-rule="nonzero" stroke="none" stroke-width="0.5" stroke-linecap="butt" stroke-linejoin="miter" stroke-miterlimit="10" stroke-dasharray="" stroke-dashoffset="0" style="mix-blend-mode: normal"><path d="M253.25254,180.25c0,2.5 -2.5,2.5 -2.5,2.5h-0.5c-2.48204,0 -4.98397,-0.12445 -7.48978,-0.25095c0.13108,2.58274 0.23672,5.16487 0.23978,7.75095v0.25c0,0 0,2.5 -2.5,2.5c-2.5,0 -2.5,-2.5 -2.5,-2.5v-0.25c0.00347,-2.65732 -0.10666,-5.31299 -0.24353,-7.97018c-2.76808,-0.08293 -5.52787,-0.0688 -8.25771,0.20777c0,0 -2.48759,0.24876 -2.73635,-2.23883c-0.24876,-2.48759 2.23883,-2.73635 2.23883,-2.73635c2.81154,-0.27781 5.64669,-0.29513 8.48854,-0.21599c-0.13299,-2.59454 -0.23978,-5.19238 -0.23978,-7.79642c0,0 0,-2.5 2.5,-2.5c2.5,0 2.5,2.5 2.5,2.5c0,2.67445 0.10996,5.3402 0.24568,8.00221c2.59169,0.12381 5.18072,0.24779 7.75432,0.24779h0.5c0,0 2.5,0 2.5,2.5z"/></g></g></svg>