<svg version="1.1" xmlns="http://www.w3.org/2000/svg" xmlns:xlink="http://www.w3.org/1999/xlink" width="59.94403" height="43.55589" viewBox="0,0,59.94403,43.55589"><g transform="translate(-214.40316,-158.22207)"><g data-paper-data="{&quot;isPaintingLayer&quot;:true}" fill="#000000" fill-rule="nonzero" stroke="none" stroke-width="0.5" stroke-linecap="butt" stroke-linejoin="miter" stroke-miterlimit="10" stroke-dasharray="" stroke-dashoffset="0" style="mix-blend-mode: normal"><path d=""/><path d=""/><path d=""/><path d="M235.13752,193.54295c-1.35484,1.69355 -3.04839,0.33871 -3.04839,0.33871l-0.83921,-0.67153c-2.61927,-2.14643 -5.43508,-3.87297 -7.55811,-6.58105c-2.0345,-2.59514 -3.11454,-5.5216 -4.51322,-8.43869c-2.57168,-5.36349 -4.44624,-11.25398 -4.48089,-17.27439c0.09049,-0.42647 0.2007,-0.85316 0.33466,-1.2811c0.03329,-0.05751 0.0699,-0.11458 0.11013,-0.17052c0.39905,-0.26472 0.86312,-0.46012 1.40631,-0.56505c0.36882,-0.07124 0.77996,-0.08787 1.20367,-0.08019c1.28249,0.49092 1.2825,2.01887 1.2825,2.01887c-0.01932,5.37516 1.76149,10.70443 4.05388,15.47495c1.26586,2.63427 2.18734,5.29757 4.02189,7.6467c1.89733,2.42953 4.53298,3.97103 6.88592,5.89335l0.80215,0.64156c0,0 1.69355,1.35483 0.33871,3.04838z"/><path d="M272.34436,193.72863h-0.16414c-4.2398,-0.00937 -8.48482,0.52268 -12.73499,0.65548c-8.49014,0.2653 -17.05118,-0.01777 -25.50886,0.00105c0,0 -2.1688,0 -2.1688,-2.1688c0,-2.1688 2.1688,-2.1688 2.1688,-2.1688c8.40242,0.02138 16.93699,0.26471 25.37351,0.00105c4.29854,-0.13432 8.58062,-0.64923 12.87033,-0.6576h0.16414c0,0 0.23293,0 0.54612,0.07634c0.44236,0.60655 0.9407,1.15825 1.45673,1.69335c-0.14417,1.57269 -0.73912,2.27771 -1.97914,2.56741c-0.01546,0.00051 -0.0237,0.00051 -0.0237,0.00051z"/><path d="M255.7451,158.41229c0.03007,-0.00086 0.06057,-0.00131 0.09152,-0.00131c0.58612,0 1.01383,0.15839 1.32596,0.38958c0.45289,0.16429 0.85953,0.37636 1.20314,0.64764c2.74769,2.1693 2.0317,5.5267 2.0317,8.47596c-0.00061,1.46304 0.01166,2.92895 0.03553,4.39652c0.49506,1.27513 1.04421,2.52262 1.62635,3.73407c1.26586,2.63427 2.18734,5.29757 4.02189,7.6467c1.89733,2.42953 4.53297,3.97103 6.88592,5.89335l0.04463,0.03569c0.4113,0.54299 0.86606,1.04347 1.33545,1.53022c-0.17603,1.92013 -1.02398,2.54686 -2.89749,2.70349c-0.24268,-0.1228 -0.39013,-0.24075 -0.39013,-0.24075l-0.83921,-0.67154c-2.61927,-2.14643 -5.43509,-3.87296 -7.55811,-6.58105c-0.71308,-0.90958 -1.30891,-1.85987 -1.8423,-2.83619c0.15371,3.01608 0.34293,6.02611 0.55677,9.01958c0.19983,2.79741 1.59856,6.62313 -1.57363,8.59957c-0.17427,0.10858 -5.40455,0.15182 -6.24249,0.12389c-5.06313,-0.16876 -10.12274,-0.16294 -15.19253,-0.16294c-4.98779,0 -9.88535,0.47753 -14.85913,0.65516c-0.75024,0.02679 -5.58425,-0.01385 -5.74686,-0.11893c-3.28988,-2.1259 -1.77181,-5.85237 -1.58204,-8.76771c0.54286,-8.34027 -1.09949,-16.3085 -1.64562,-24.55872c0,-1.81146 -0.08286,-3.61001 -0.13127,-5.41391c0.10315,-1.13605 0.30064,-2.26216 0.66805,-3.3978c0.41482,-0.2894 0.90175,-0.50233 1.4776,-0.61357c0.51571,-0.09962 1.11423,-0.09246 1.71409,-0.06136c0.03098,0.04318 0.05979,0.087 0.08659,0.13119c0.21458,-0.06863 0.36382,-0.08853 0.36382,-0.08853c0.02748,-0.00362 0.05498,-0.00721 0.08246,-0.01078c0.39707,0.02542 0.78393,0.05055 1.13616,0.05055c0,0 0.42624,0 0.74426,-0.26723c8.85903,-0.89425 18.181,-0.11983 27.04766,-0.11983c1.59139,0 3.98751,-0.30255 6.20703,-0.23955c0.5919,-0.05841 1.21248,-0.01489 1.81423,0.11853zM256.0184,171.05863c-0.0123,-2.26108 -0.42607,-5.97029 -1.20705,-8.1272c-0.02864,-0.07909 -0.0815,-0.13584 -0.15208,-0.17533c-0.02034,-0.00963 -0.0407,-0.01908 -0.06105,-0.02836c-0.48067,-0.18403 -1.54171,0.21028 -1.754,0.06874l-0.08858,-0.0949c-0.20913,0.05387 -0.4151,0.11482 -0.61465,0.17033c-2.40243,0.00611 -4.80502,-0.00096 -7.20745,-0.00096c-8.41638,0 -17.31299,-0.81921 -25.64695,0.30924c0,0 -0.22482,0.02998 -0.53873,-0.00216c0.04827,1.66605 0.1218,3.32845 0.1218,5.00221c0.44439,6.61602 1.64256,12.94533 1.64256,19.60443c0,0.38623 0.00153,5.29709 -0.00546,5.40612c-0.05095,0.79614 -0.23428,1.57838 -0.33458,2.36982c-0.07624,0.60156 -0.12681,1.2061 -0.19498,1.80863c-0.01939,0.1714 -0.23984,0.50254 -0.06766,0.51305c1.5926,0.09717 4.00986,-0.55189 5.7427,-0.61133c4.25094,-0.14583 8.44566,-0.49378 12.71584,-0.49378c6.42064,0 12.96422,0.55075 19.27087,0.6175c0.7324,0.00776 -0.32645,-1.4305 -0.41786,-2.15721c-0.29221,-2.32328 -0.1751,-4.65892 -0.33583,-6.98087c-0.2899,-4.18803 -0.53734,-8.41117 -0.68372,-12.63345c-0.3476,-1.17168 -0.18141,-4.25154 -0.18312,-4.56453z"/><path d=""/></g></g></svg>