<svg version="1.1" xmlns="http://www.w3.org/2000/svg" xmlns:xlink="http://www.w3.org/1999/xlink" width="65.41553" height="57.59015" viewBox="0,0,65.41553,57.59015"><g transform="translate(-217.51693,-147.28885)"><g data-paper-data="{&quot;isPaintingLayer&quot;:true}" fill="#000000" fill-rule="nonzero" stroke-linecap="butt" stroke-linejoin="miter" stroke-miterlimit="10" stroke-dasharray="" stroke-dashoffset="0" style="mix-blend-mode: normal"><path d="" stroke="none" stroke-width="0.5"/><path d="" stroke="none" stroke-width="0.5"/><path d="" stroke="none" stroke-width="0.5"/><path d="M241.28655,192.67491c-1.45504,1.8188 -2.8864,0.75119 -2.8864,0.75119l-1.2887,-1.10862c-2.81298,-2.30517 -5.83704,-4.1594 -8.11708,-7.06776c-2.18496,-2.78707 -3.34488,-5.92996 -4.847,-9.06278c-2.55461,-5.32789 -4.46869,-11.13998 -4.77103,-17.09884c0.10376,-0.17661 0.21508,-0.3469 0.33503,-0.50988c0.37333,-0.50723 0.78435,-0.96926 1.22129,-1.39931c0.92443,-0.28556 3.54477,-0.27339 3.54477,-0.27339c-0.02075,5.77269 1.40747,12.14182 3.86939,17.26514c1.35948,2.82909 2.34911,5.68936 4.31933,8.21222c2.03765,2.60921 4.86822,4.26471 7.39518,6.3292l0.86147,0.68901c0,0 1.8188,1.45503 0.36376,3.27383z" stroke="#000000" stroke-width="3"/><path d="M267.39196,193.73324c-9.11804,0.28492 -18.3897,-0.25154 -27.47287,-0.23133c0,0 -2.25172,0.23246 -2.25172,-2.09674c0,-0.23928 0.02377,-0.45398 0.06641,-0.64662c0.37247,-1.68258 2.1853,-1.68258 2.1853,-1.68258c9.02383,0.02296 18.26707,0.28429 27.32752,0.00113c4.18467,-0.13076 8.35483,-0.59738 12.52973,-0.69022c0.43429,0.51724 0.88624,1.01635 1.35332,1.49994c0.08338,0.44281 0.16416,0.89149 0.24297,1.34528c-0.09517,0.19889 -0.1915,0.39819 -0.28872,0.59789c-0.51426,0.21887 -1.03265,0.44769 -1.43983,0.68543c-1.48814,-0.06096 -2.97781,0.14955 -4.46108,0.74368c-2.5952,0.17274 -5.19222,0.39293 -7.79102,0.47414z" stroke="#000000" stroke-width="3"/><path d="M263.41818,156.81575c0.03229,-0.00092 0.06505,-0.00141 0.09829,-0.00141c0.62947,0 1.08881,0.1701 1.42402,0.41839c0.48638,0.17644 0.9231,0.40419 1.29212,0.69554c2.9509,2.32973 2.18196,5.93543 2.18196,9.10281c-0.00066,1.57124 0.01252,3.14556 0.03816,4.72167c0.53167,1.36943 1.12144,2.70918 1.74663,4.01023c1.35948,2.82909 2.34911,5.68936 4.31933,8.21222c1.65409,2.11806 3.83067,3.60766 5.9432,5.19774c0.21885,0.24181 0.44152,0.47967 0.66776,0.71389c0.08338,0.44281 0.16416,0.89149 0.24297,1.34528c-0.09517,0.19889 -0.1915,0.39819 -0.28872,0.59789c-0.51426,0.21887 -1.03265,0.44769 -1.43983,0.68543c-0.76001,-0.03113 -1.52042,0.00853 -2.28017,0.13395c-2.32199,-1.77803 -4.66496,-3.44492 -6.517,-5.80735c-0.76582,-0.97685 -1.40571,-1.99742 -1.97855,-3.04594c0.16508,3.23914 0.36829,6.47178 0.59795,9.68663c0.21461,3.0043 1.71678,7.11295 -1.69001,9.23556c-0.18716,0.11661 -5.80425,0.16305 -6.70416,0.13305c-5.43758,-0.18124 -10.87138,-0.17499 -16.31611,-0.17499c-5.35667,0 -10.61643,0.51285 -15.95805,0.70361c-0.80572,0.02877 -5.99724,-0.01487 -6.17187,-0.12773c-3.53319,-2.28312 -1.90285,-6.28519 -1.69904,-9.41613c0.58301,-8.95708 -1.1808,-17.51461 -1.76732,-26.37499c0,-1.94543 -0.08899,-3.87699 -0.14098,-5.8143c0.07438,-0.81924 0.19445,-1.63365 0.38477,-2.44959c0.09596,-0.16027 0.1983,-0.3152 0.30784,-0.46403c0.33274,-0.45209 0.69543,-0.86827 1.07973,-1.25791c0.16904,-0.05487 0.34621,-0.10061 0.532,-0.13651c0.55385,-0.10699 1.19663,-0.0993 1.84086,-0.0659c0.03327,0.04637 0.06421,0.09343 0.09299,0.14089c0.23045,-0.07371 0.39073,-0.09508 0.39073,-0.09508c0.02951,-0.00389 0.05905,-0.00774 0.08856,-0.01158c0.42644,0.0273 0.84191,0.05429 1.22019,0.05429c0,0 0.45776,0 0.7993,-0.28699c9.51421,-0.96039 19.52559,-0.12869 29.048,-0.12869c1.70908,0 4.28241,-0.32493 6.66608,-0.25727c0.63567,-0.06273 1.30215,-0.01599 1.9484,0.1273zM263.7117,170.39737c-0.01321,-2.4283 -0.45758,-6.41183 -1.29632,-8.72826c-0.03076,-0.08494 -0.08753,-0.14589 -0.16333,-0.1883c-0.02184,-0.01034 -0.04371,-0.02049 -0.06557,-0.03046c-0.51622,-0.19764 -1.65573,0.22583 -1.88372,0.07382l-0.09513,-0.10192c-0.2246,0.05785 -0.4458,0.12331 -0.66011,0.18293c-2.5801,0.00656 -5.16038,-0.00103 -7.74048,-0.00103c-9.03882,0 -18.59339,-0.8798 -27.5437,0.33211c0,0 -0.24145,0.0322 -0.57857,-0.00232c0.05184,1.78926 0.13081,3.57461 0.13081,5.37215c0.47726,7.10531 1.76404,13.90272 1.76404,21.0543c0,0.41479 0.00164,5.68884 -0.00586,5.80594c-0.05472,0.85502 -0.25161,1.69511 -0.35932,2.54508c-0.08188,0.64605 -0.13619,1.2953 -0.2094,1.94239c-0.02082,0.18408 -0.25758,0.53971 -0.07266,0.55099c1.71038,0.10436 4.30641,-0.59271 6.16741,-0.65654c4.56532,-0.15662 9.07027,-0.5303 13.65625,-0.5303c6.89548,0 13.923,0.59148 20.69607,0.66317c0.78657,0.00833 -0.35059,-1.53629 -0.44876,-2.31675c-0.31382,-2.4951 -0.18805,-5.00348 -0.36067,-7.49715c-0.31134,-4.49776 -0.57708,-9.03323 -0.73429,-13.56777c-0.37331,-1.25833 -0.19483,-4.56597 -0.19666,-4.9021z" stroke="#000000" stroke-width="3"/><path d="" stroke="none" stroke-width="0.5"/><path d="M237.49186,150.99394c1.5948,3.18959 0.20994,7.44191 0.16769,10.81056c-0.01664,1.32664 0.38694,3.87857 -0.45731,4.72282c-6.57448,6.57448 -4.39787,-13.3022 -4.39787,-13.73246c-0.09376,-0.26269 -0.14481,-0.54566 -0.14481,-0.84055c0,-0.04688 0.00129,-0.09346 0.00384,-0.1397c0.08112,-1.9139 1.30973,-2.52671 2.53346,-2.36002c0.93144,0.01362 1.73953,0.53663 2.15814,1.30289c0.05052,0.07646 0.09632,0.15536 0.13687,0.23646z" stroke="#000000" stroke-width="2"/><path d="M254.29808,148.4406c1.13523,0.64871 1.8968,1.80379 2.39257,3.22728c1.26357,3.62802 0.80061,8.99959 0.39706,12.17512c-0.2276,1.79098 -0.11125,4.80322 -2.78963,4.80322c-1.90933,0 -2.31678,-1.18349 -2.5,-2.5c-0.26197,-1.88232 0.82388,-3.67242 0.86889,-5.5139c0.04921,-2.0132 -0.53657,-4.00907 -0.72407,-6.00924c-0.11982,-1.27822 -0.90443,-4.31983 0.20065,-4.9513z" stroke="#000000" stroke-width="2"/></g></g></svg>