<svg version="1.1" xmlns="http://www.w3.org/2000/svg" xmlns:xlink="http://www.w3.org/1999/xlink" width="36.25687" height="33.50931" viewBox="0,0,36.25687,33.50931"><g transform="translate(-221.87156,-163.24535)"><g data-paper-data="{&quot;isPaintingLayer&quot;:true}" fill="#000000" fill-rule="nonzero" stroke="none" stroke-width="0.5" stroke-linecap="butt" stroke-linejoin="miter" stroke-miterlimit="10" stroke-dasharray="" stroke-dashoffset="0" style="mix-blend-mode: normal"><path d="M227.29779,168.42669c0.07377,0.32992 0.07377,0.56866 0.07377,0.56866c-0.00435,4.46421 0.63797,9.00727 0.2399,13.47451c-0.23058,2.58761 -0.35376,5.04662 -0.493,7.65095c-0.02172,0.40626 -0.39094,0.85307 -0.18838,1.2059c0.32888,0.57287 5.24654,0.3929 5.81602,0.42173c5.0541,0.25594 10.18903,-0.00598 15.25093,0c0.10147,-0.01028 4.85334,-0.49275 4.87577,-0.4907c0.35051,0.03201 0.74141,0.87671 0.89513,0.56008c0.18229,-0.37549 -0.57205,-0.66175 -0.64637,-1.07249c-0.14837,-0.82002 0,-1.66667 0,-2.5c0,-5.43023 -1.21166,-10.30105 -1.97562,-15.65173c-0.1231,-0.86215 -0.2728,-1.72868 -0.26197,-2.59951c0.00497,-0.39957 0.51679,-0.81724 0.30869,-1.15837c-0.1638,-0.2685 -0.61997,0.11802 -0.93413,0.13311c-0.79479,0.0382 -1.59127,0.02278 -2.38697,0.0265c-5.09335,0.02378 -10.15014,-0.75549 -15.25,-0.75c-1.8699,0 -3.56027,-0.02521 -5.32377,0.18134zM222.55732,168.04129c-0.38902,-0.37006 -0.68576,-0.93463 -0.68576,-1.79594c0,-2.5 2.5,-2.5 2.5,-2.5l0.25971,0.04855c2.74006,-0.53562 5.2079,-0.54855 7.99029,-0.54855c5.10112,0.00501 10.15732,0.72829 15.25,0.75c2.25221,0.0096 5.4172,-0.319 7.1789,1.65961c0.68682,0.77139 0.85622,4.90943 1.04672,6.24212c0.79749,5.57911 2.02438,10.67437 2.02438,16.34827c0,1.55178 0.12038,6.04193 -0.64637,6.92751c-1.25379,1.4481 -7.2759,1.37638 -9.2291,1.56938c-6.09071,0.00658 -12.1752,0.08436 -18.24907,-0.25c-2.84882,-0.15683 -4.96186,0.55304 -7.18398,-2.32827c-0.83505,-1.08276 -0.69333,-4.94005 -0.69148,-6.41863c0.00779,-6.22871 0.25562,-12.48027 0.25,-18.75c0,0 0,-0.44186 0.18576,-0.95406z"/></g></g></svg>