<svg version="1.1" xmlns="http://www.w3.org/2000/svg" xmlns:xlink="http://www.w3.org/1999/xlink" width="36.25687" height="33.5093" viewBox="0,0,36.25687,33.5093"><g transform="translate(-221.87156,-163.24535)"><g data-paper-data="{&quot;isPaintingLayer&quot;:true}" fill="#000000" fill-rule="nonzero" stroke="none" stroke-width="0.25" stroke-linecap="butt" stroke-linejoin="miter" stroke-miterlimit="10" stroke-dasharray="" stroke-dashoffset="0" style="mix-blend-mode: normal"><path d="M222.55732,168.04129c-0.38902,-0.37006 -0.68576,-0.93463 -0.68576,-1.79594c0,-2.5 2.5,-2.5 2.5,-2.5l0.25971,0.04855c2.74006,-0.53562 5.2079,-0.54855 7.99029,-0.54855c5.10112,0.00501 10.15732,0.72829 15.25,0.75c2.25221,0.0096 5.4172,-0.319 7.1789,1.65961c0.68682,0.77139 0.85622,4.90943 1.04672,6.24212c0.79749,5.57911 2.02438,10.67437 2.02438,16.34827c0,1.55178 0.12038,6.04193 -0.64637,6.92751c-1.25379,1.4481 -7.2759,1.37638 -9.2291,1.56938c-6.09071,0.00658 -12.1752,0.08436 -18.24907,-0.25c-2.84882,-0.15683 -4.96186,0.55304 -7.18398,-2.32827c-0.83505,-1.08276 -0.69333,-4.94005 -0.69148,-6.41863c0.00779,-6.22871 0.25562,-12.48027 0.25,-18.75c0,0 0,-0.44186 0.18576,-0.95406z"/></g></g></svg>