<svg version="1.1" xmlns="http://www.w3.org/2000/svg" xmlns:xlink="http://www.w3.org/1999/xlink" width="43.88089" height="41.82609" viewBox="0,0,43.88089,41.82609"><g transform="translate(-218.05956,-159.08696)"><g data-paper-data="{&quot;isPaintingLayer&quot;:true}" fill="#000000" fill-rule="nonzero" stroke="none" stroke-width="0.5" stroke-linecap="butt" stroke-linejoin="miter" stroke-miterlimit="10" stroke-dasharray="" stroke-dashoffset="0" style="mix-blend-mode: normal"><path d="M232.09422,165.06766c-2.19475,0.59569 -4.30611,1.46757 -5.88601,3.02854c-2.14541,2.11971 -2.75086,5.38623 -3.03017,8.23099c-0.70309,7.16098 1.86958,13.64659 8.29989,17.22668c6.41532,2.33092 19.54681,5.13158 23.51395,-2.66552c0.72313,-1.42127 1.14477,-3.08372 1.42523,-4.77118c-1.76217,0.69862 -3.71494,1.11436 -4.90228,1.39438c-6.61829,1.56085 -15.15246,0.30698 -19.16149,-5.80689c-2.79202,-4.2579 -3.37426,-12.17394 -0.25912,-16.637zM237.77635,159.40731c0.01373,0.00035 0.02746,0.0007 0.0412,0.00105c0.03219,0.02866 0.06506,0.05698 0.09855,0.08499c0.08302,0.05568 0.16405,0.11864 0.24193,0.18976c1.42234,1.05115 3.64269,1.70401 3.78242,3.39532c0.22021,2.66562 -5.2338,3.45606 -6.26823,5.62659c-0.88111,1.84882 -0.52753,4.08655 -0.25614,6.02514c1.2244,8.74615 10.36943,9.50753 17.47995,7.22785c1.16268,-0.37276 2.19272,-0.97656 3.16088,-1.68701l1.1739,-2.11303c0.41981,-0.7909 1.25182,-1.32954 2.20964,-1.32954c1.38071,0 2.5,1.11929 2.5,2.5v2.5l-0.04926,0l0.04616,0.12453c-0.36726,3.67417 -0.76984,8.00537 -2.54833,11.31554c-5.62016,10.46043 -20.76106,8.19114 -29.98605,4.83448c-8.32702,-4.61865 -12.15513,-12.87088 -11.20011,-22.27332c0.41085,-4.04496 1.49333,-8.26999 4.46983,-11.26901c2.80008,-2.82126 6.67544,-4.01565 10.49772,-4.85898l1.52005,-0.37325c0.0762,0.00195 0.1524,0.0039 0.22859,0.00584c0.34589,-0.07008 0.68988,-0.13885 1.03112,-0.20729c0,0 0.98118,-0.19624 1.8262,0.28033z"/></g></g></svg>