<svg version="1.1" xmlns="http://www.w3.org/2000/svg" xmlns:xlink="http://www.w3.org/1999/xlink" width="80.03006" height="68.64533" viewBox="0,0,80.03006,68.64533"><g transform="translate(-199.98497,-145.56763)"><g data-paper-data="{&quot;isPaintingLayer&quot;:true}" fill-rule="nonzero" stroke-linecap="butt" stroke-linejoin="miter" stroke-miterlimit="10" stroke-dasharray="" stroke-dashoffset="0" style="mix-blend-mode: normal"><path d="M206.19625,190.07916c-0.55716,-6.24356 -0.16333,-12.84584 -0.16333,-19.11923c0,-4.39589 -0.0498,-8.82796 1.10842,-13.09044c0.48672,-1.45826 0.66585,-3.05996 1.44513,-4.38515c2.13763,-3.63514 10.70052,-1.95079 14.10644,-1.95079c12.29664,0 24.57104,0.55889 36.87738,0.50648c2.5123,0.51394 5.03468,0.78042 7.50824,1.4767c0.86324,0.24299 1.69968,0.58886 2.57062,0.8026c0.40377,0.09909 1.01836,-0.21607 1.24076,0.1352c0.25262,0.399 -0.28331,0.91851 -0.27433,1.39067c0.01694,0.89059 0.2425,1.76766 0.35373,2.65144c0.36011,2.86111 0.24055,5.37478 0.1589,8.24903c-0.2891,10.17805 -0.49758,21.5884 1.94811,31.49616c0.33752,1.91468 0.83475,3.80269 1.17687,5.71655c0.16981,0.94995 0.73811,2.29947 -0.01952,2.89717c-2.24176,1.76853 -7.00234,1.43271 -9.63263,1.6648c-12.45115,1.09864 -24.87216,-2.41536 -37.33813,-2.41536c-6.61021,-0.43218 -13.13722,-0.66865 -19.77439,-0.701c0.0268,-5.18745 -0.82681,-10.10869 -1.29228,-15.32482z" data-paper-data="{&quot;noHover&quot;:false,&quot;origItem&quot;:[&quot;Path&quot;,{&quot;applyMatrix&quot;:true,&quot;selected&quot;:true,&quot;segments&quot;:[[[207.3556,205.3733],[0.0268,-5.18745],[6.63717,0.03235],7],[[227.11276,206.0602],[-6.61021,-0.43218],[12.46597,0],7],[[264.39622,208.48227],[-12.45115,1.09864],[2.63029,-0.23209],7],[[274.02208,206.82449],[-2.24176,1.76853],[0.75763,-0.5977],7],[[274.03996,203.92952],[0.16981,0.94995],[-0.34212,-1.91386],7],[[272.86026,198.21747],[0.33752,1.91468],[-2.44569,-9.90776],7],[[270.90984,166.76531],[-0.2891,10.17805],[0.08164,-2.87425],7],[[270.75591,158.52525],[0.36011,2.86111],[-0.11124,-0.88378],7],[[270.40401,155.87627],[0.01694,0.89059],[-0.00898,-0.47216],7],[[270.67907,154.48649],[0.25262,0.399],[-0.2224,-0.35127],7],[[269.43906,154.35217],[0.40377,0.09909],[-0.87094,-0.21374],7],[[266.87051,153.55181],[0.86324,0.24299],[-2.47357,-0.69628],7],[[259.36943,152.08113],[2.5123,0.51394],[-12.30634,0.05241],7],[[222.54681,151.57606],[12.29664,0],[-3.40592,0],7],[[208.45244,153.51638],[2.13763,-3.63514],[-0.77928,1.32519],7],[[207.01054,157.8972],[0.48672,-1.45826],[-1.15822,4.26248],7],[[205.90887,170.97261],[0,-4.39589],[0,6.2734],7],[[206.07176,190.06489],[-0.55716,-6.24356],[0.46547,5.21614],7]],&quot;closed&quot;:true}]}" fill="#cc3838" stroke="none" stroke-width="0.5"/><path d="M232.65289,185.97371l-2.02582,0.43029c-2.72762,0.01719 -5.30863,0.0335 -8.00554,0.37825c-1.34445,4.84608 -3.23158,9.6197 -3.78723,14.61934c0,0 -0.27615,2.43982 -2.76085,2.16866c-2.4847,-0.27116 -2.20855,-2.71099 -2.20855,-2.71099c0.62822,-5.46262 2.66639,-10.62458 4.08443,-15.92547c2.1072,-7.87708 2.89299,-15.992 6.05893,-23.58263l0.05989,-0.05969l-0.02561,-0.01226l1.09791,-2.21081c0.43745,-0.93592 1.44938,-1.5352 2.54873,-1.41523c1.11772,0.12198 1.98103,0.94983 2.18044,1.98088l0.55904,2.56211l-0.41303,0.08689c1.26731,3.05533 2.17767,6.14914 3.50441,9.39926c3.59366,8.80346 6.12588,18.13605 10.26123,26.71844l0.97917,1.29348c0,0 1.44435,2.0037 -0.59621,3.42196c-2.04056,1.41826 -3.4849,-0.58544 -3.4849,-0.58544l-1.41975,-2.03447c-2.28351,-4.7618 -4.19449,-9.7439 -5.99808,-14.76859c-0.33771,0.17864 -0.60861,0.24602 -0.60861,0.24602zM230.59497,181.49442l0.83019,-0.28008c0,0 0.08471,-0.02107 0.22646,-0.03978c-1.21995,-3.48368 -2.42677,-6.96208 -3.70832,-10.37632c-0.22445,-0.59797 -0.65858,-1.49426 -1.10147,-2.4829c-1.27777,4.39475 -2.03283,8.9236 -2.99646,13.40608c2.24429,-0.18554 4.45253,-0.21251 6.7496,-0.22701z" fill="#000000" stroke="none" stroke-width="0.5"/><path d="M252.41543,198.67258c0.26625,0.43453 0.42661,1.0255 0.34483,1.82761c-0.27615,2.70845 -2.76085,2.40743 -2.76085,2.40743l-2.36017,-2.27459c-0.91322,-5.99228 -0.70817,-12.15356 -0.98363,-18.21357c-0.35254,-7.75578 -1.05962,-15.43965 -0.2726,-23.15869c0,0 0.27615,-2.70845 2.76085,-2.40743c2.4847,0.30102 2.20855,3.00947 2.20855,3.00947c-0.75669,7.42146 -0.03802,14.83109 0.29737,22.2937c0.24608,5.47523 0.03588,11.08499 0.76565,16.51606z" fill="#000000" stroke="none" stroke-width="0.5"/><path d="M260.28796,203.25315c-2.15345,1.40274 -3.42335,-0.97598 -3.42335,-0.97598l-0.74941,-1.76229c-2.04135,-13.33783 -0.99825,-26.5137 -0.41187,-39.92322c0,0 0.12062,-2.75831 2.61771,-2.62507c2.49709,0.13324 2.37647,2.89155 2.37647,2.89155c-0.56879,13.00606 -1.63534,25.80079 0.34762,38.73533l0.12638,-0.12179c0,0 1.2699,2.37873 -0.88355,3.78147z" fill="#000000" stroke="none" stroke-width="0.5"/><path d="M201.84559,206.91799c0.11404,-0.45614 0.29241,-0.80505 0.50689,-1.07092c0.1033,-5.22335 -0.80493,-10.11725 -1.26166,-15.34605c-0.24236,-2.77455 0.08221,-5.63113 -0.00831,-8.41591c-0.27349,-8.41401 -1.01595,-17.42243 1.1385,-25.6233c1.07386,-3.22548 1.5895,-6.16735 4.61388,-8.24902c4.14848,-2.85538 10.93676,-1.63673 15.71192,-1.63673c12.45762,0 24.84866,0.48413 37.31531,0.52941c3.75237,0.73537 7.76179,1.00499 11.30968,2.55655c1.24483,0.54438 2.78227,0.84037 3.58757,1.93464c0.75731,1.02907 0.42805,2.51942 0.61989,3.78264c0.59684,3.93023 0.64236,7.56897 0.52866,11.52475c-0.28034,9.7537 -0.56056,20.79124 1.84268,30.27198c0.68768,3.8927 3.10367,9.63939 -0.12734,13.11712c-2.80444,3.01859 -9.11943,2.84612 -12.78793,3.16981c-12.68119,1.11892 -25.20821,-2.40552 -37.88895,-2.40552c-7.12316,-0.48254 -14.11697,-0.68827 -21.29612,-0.68827l-1.98565,-0.41947c0,0 -2.42536,-0.60634 -1.81902,-3.0317zM207.3556,205.3733c6.63717,0.03235 13.14694,0.25472 19.75716,0.6869c12.46597,0 24.83231,3.52071 37.28346,2.42207c2.63029,-0.23209 7.3841,0.11075 9.62586,-1.65778c0.75763,-0.5977 0.18769,-1.94502 0.01788,-2.89497c-0.34212,-1.91386 -0.84218,-3.79737 -1.1797,-5.71205c-2.44569,-9.90776 -2.23952,-21.2741 -1.95042,-31.45216c0.08164,-2.87425 0.20619,-5.37895 -0.15392,-8.24006c-0.11124,-0.88378 -0.33496,-1.75839 -0.3519,-2.64898c-0.00898,-0.47216 0.52768,-0.99078 0.27506,-1.38978c-0.2224,-0.35127 -0.83624,-0.03523 -1.24001,-0.13432c-0.87094,-0.21374 -1.70531,-0.55737 -2.56855,-0.80036c-2.47357,-0.69628 -4.98878,-0.95674 -7.50108,-1.47068c-12.30634,0.05241 -24.52598,-0.50507 -36.82262,-0.50507c-3.40592,0 -11.95674,-1.69482 -14.09437,1.94032c-0.77928,1.32519 -0.95518,2.92257 -1.4419,4.38083c-1.15822,4.26248 -1.10166,8.67952 -1.10166,13.07541c0,6.2734 -0.39427,12.84872 0.16289,19.09228c0.46547,5.21614 1.31064,10.12096 1.28384,15.30841z" fill="#cc3939" stroke="#cc3939" stroke-width="1.5"/></g></g></svg>