<svg version="1.1" xmlns="http://www.w3.org/2000/svg" xmlns:xlink="http://www.w3.org/1999/xlink" width="166.63636" height="59.45054" viewBox="0,0,166.63636,59.45054"><g transform="translate(-156.68182,-150.27473)"><g data-paper-data="{&quot;isPaintingLayer&quot;:true}" fill-rule="nonzero" stroke="none" stroke-width="0.5" stroke-linecap="butt" stroke-linejoin="miter" stroke-miterlimit="10" stroke-dasharray="" stroke-dashoffset="0" style="mix-blend-mode: normal"><path d="M307.87739,202.3722c0.79057,2.37171 -1.58114,3.16228 -1.58114,3.16228l-1.72807,0.44079c-2.8125,0 -5.625,0 -8.4375,0c0,0 -2.5,0 -2.5,-2.5c0,-0.00698 0.00001,-0.01394 0.00005,-0.02088c-0.66408,-0.40788 -1.37619,-0.40775 -1.37619,-0.40775c-9.16764,0 -18.49709,-0.52624 -27.64753,0.01812c-7.25422,0.43156 -14.49155,1.35304 -21.76744,1.35304c-18.07274,0 -36.06398,-1.67126 -54.11398,-1.70651c-4.27083,0 -8.54308,-0.00356 -12.81392,-0.00356c-1.95511,0 -4.89923,0.54618 -6.76495,-0.42532c-4.5666,-2.37789 -4.88068,-7.52285 -5.4443,-12.3283c-0.76691,-6.53878 -2.16828,-12.4631 -2.16828,-19.13384c0,-4.4422 0.09382,-8.68288 0.60729,-13.09195l0.84961,-0.85752c0,0 0.21238,-0.34222 0.34625,-0.84735c3.77978,-0.75878 7.7972,-0.3088 11.63717,-0.3088c7.70659,0 15.19759,0.12347 22.86565,0.98475c4.57671,0.51406 9.25138,-0.20246 13.71138,0.99432c19.77594,0.0961 39.65992,0.69321 59.44834,0.69321c9.79564,0 19.73899,0.55422 29.51932,0.00767c2.80296,-0.15663 5.47862,-0.32968 8.2998,-0.32968c1.45331,0 2.97203,-0.67962 4.35601,-0.20355c0.72027,0.24776 1.32518,2.80398 1.38284,3.01663c0.98318,3.62628 2.03715,6.98053 2.42764,10.75275c1.62135,6.80559 1.21019,14.3369 1.21019,21.34129c0,2.27639 0.90849,6.772 -0.60599,8.60413c-0.83348,1.00829 -2.38756,1.14416 -3.95686,1.01279c-0.64195,-0.3394 -1.30234,-0.33937 -1.30234,-0.33937l-1.03102,0.00931c-0.45574,-0.07955 -0.87482,-0.15412 -1.23285,-0.20295l-0.457,-0.21848c0,0 -0.99922,-0.35684 -1.91671,0.08847c0.06814,0.13462 0.13009,0.28295 0.18453,0.44628z" fill="#ffffff"/><path d="M187.99234,162.85136c0.27608,2.48471 -2.20863,2.76079 -2.20863,2.76079l-1.94347,0.21499c-1.38169,0.11399 -2.77277,0.19387 -4.1676,0.23964c-0.00866,9.43778 0.30417,19.23978 1.6432,28.58211l0.18491,0.90493c0,0 0.49029,2.45146 -1.96116,2.94174c-2.45145,0.49029 -2.94175,-1.96116 -2.94175,-1.96116l-0.23175,-1.1784c-1.36595,-9.59164 -1.65019,-19.58557 -1.68894,-29.27097c-1.60468,-0.04089 -3.20547,-0.12685 -4.79381,-0.25789c0,0 -2.49136,-0.20761 -2.28375,-2.69898c0.20761,-2.49137 2.69898,-2.28375 2.69898,-2.28375c4.33713,0.36535 8.78894,0.36538 13.12644,0l1.80653,-0.20168c0,0 2.48471,-0.27608 2.76079,2.20863z" fill="#000000"/><path d="M207.98897,194.9278c-2.42536,0.60634 -3.03169,-1.81902 -3.03169,-1.81902l-0.4573,-1.86201c-0.35701,-2.14557 -0.34705,-4.94047 -0.82788,-6.88801c-0.1634,-0.66182 -1.37459,0.10383 -2.01882,0.32671c-0.94446,0.32675 -2.42209,1.00127 -3.01263,1.89509c-0.95459,1.44484 -0.07402,2.31761 -0.63301,3.92919v2.82602c0,1.38071 -1.11929,2.5 -2.5,2.5c-1.38071,0 -2.5,-1.11929 -2.5,-2.5v-2.70833c0,-0.10309 -0.00036,-0.20611 -0.00108,-0.30906c-0.18619,-0.3075 -0.16962,-0.94952 -0.04372,-1.71625c-0.35807,-8.30984 -2.7237,-16.231 -2.02989,-24.64063c0,0 0.20761,-2.49137 2.69897,-2.28375c2.49136,0.20762 2.28375,2.69898 2.28375,2.69898c-0.4821,5.72315 0.5203,11.2551 1.29772,16.84347c3.27141,-2.13319 7.95565,-2.89284 10.54645,0.25926c0.76823,0.93466 0.40598,2.38567 0.63745,3.57318c0.34891,1.78994 0.7344,3.5734 1.03466,5.37213l0.37604,1.47133c0,0 0.60634,2.42536 -1.81902,3.0317z" fill="#000000"/><path d="M215.2993,197.08578c-2.5,0 -2.5,-2.5 -2.5,-2.5l0.03402,0.20267c-0.72076,-4.3493 -0.70128,-8.73107 -1.06705,-13.12005c0,0 -0.20761,-2.49136 2.28375,-2.69898c2.49136,-0.20762 2.69898,2.28375 2.69898,2.28375c0.35404,4.24866 0.31088,8.50693 1.01629,12.71328l0.03402,0.61933c0,0 0,2.5 -2.5,2.5z" fill="#000000"/><path d="M211.75763,173.54411c0,-1.38071 1.11929,-2.5 2.5,-2.5c1.38071,0 2.5,1.11929 2.5,2.5c0,1.38071 -1.11929,2.5 -2.5,2.5c-1.38071,0 -2.5,-1.11929 -2.5,-2.5z" fill="#000000"/><path d="M224.09206,186.58907c1.53359,-0.51119 2.40608,0.2998 2.83121,0.93682c1.74733,0.36071 5.4678,0.75062 3.69718,-0.98492c-1.75696,-1.72215 -4.79196,-0.56948 -6.81597,-2.24299c-4.24763,-3.51206 -2.2222,-11.08339 2.78758,-12.91725c1.09535,-0.40096 2.33213,0.05912 3.49819,0.08868c0,0 2.49136,0.20761 2.28375,2.69898c-0.20761,2.49137 -2.69898,2.28375 -2.69898,2.28375c-1.75077,-0.38236 -3.61298,0.99476 -3.39584,3.20626c0.08392,0.85469 1.84075,0.98383 2.12275,1.04276c2.47294,0.51676 4.35915,0.31607 6.15955,2.76275c1.91307,2.5998 1.89696,5.9415 -0.57871,8.25101c-2.62032,2.44446 -7.22303,1.2928 -9.92632,0.14677l-1.54553,-2.11035c0,0 -0.79058,-2.37171 1.58113,-3.16228z" fill="#000000"/><path d="M256.32865,180.20566c-2.6824,1.97816 -3.24025,8.09725 0.74036,8.99361c1.32608,0.29861 3.29569,-1.7826 3.74851,-2.83c1.28771,-2.97857 -1.5571,-5.90658 -4.13002,-6.1925zM258.44518,175.45285c3.32261,0.8259 5.57196,2.40646 6.84992,6.02584c2.0184,5.7164 -2.17077,13.59915 -9.00046,12.66026c-8.10996,-1.11489 -9.06017,-13.28684 -3.68914,-17.95192c0.88603,-0.76957 2.1905,-0.84308 3.28575,-1.26463c0,0 1.54219,-0.51407 2.55392,0.53045z" fill="#000000"/><path d="M281.26516,194.37744c-2.5,0 -2.5,-2.5 -2.5,-2.5l0.11055,0.31855c-0.54737,-1.80895 -0.82529,-3.6912 -1.12226,-5.55767c-0.13619,-0.85593 -0.46003,-1.67531 -0.59094,-2.53206c-0.08395,-0.54938 0.08276,-1.92488 -0.38356,-1.62255c-2.96612,1.9231 -2.14101,4.14311 -3.73224,6.73752c-0.02127,0.03468 -0.04276,0.06921 -0.06446,0.10358l0.02961,0.00987l-0.8151,2.44531c-0.31417,1.02156 -1.26534,1.76412 -2.38994,1.76412c-1.38071,0 -2.5,-1.11929 -2.5,-2.5c0,-3.68055 0,-9.86111 0,-13.54166c0,0 0,-2.5 2.5,-2.5c2.5,0 2.5,2.5 2.5,2.5c0,0.73349 0,1.46698 0,2.20047c2.36041,-2.26851 5.50473,-3.35238 8.51634,-0.54902c0.97964,0.9119 0.85207,2.53879 1.21131,3.82806c0.73224,2.62796 0.80369,5.14248 1.62014,7.7436l0.11055,1.15188c0,0 0,2.5 -2.5,2.5z" fill="#000000"/><path d="M289.76406,194.24915c-2.37171,0.79057 -3.16228,-1.58114 -3.16228,-1.58114l-0.5376,-1.84883c-0.61117,-8.01712 -1.25118,-16.75039 -3.64682,-24.45652c0,0 -0.73521,-2.38944 1.65424,-3.12466c2.38945,-0.73522 3.12466,1.65423 3.12466,1.65423c2.46875,8.09624 3.20112,17.13694 3.85318,25.54348l0.29574,0.65117c0,0 0.79057,2.37171 -1.58114,3.16228z" fill="#000000"/><path d="M301.05682,207.71078c-2.5,0 -2.5,-2.5 -2.5,-2.5l0.03402,-1.24433c0.65056,-3.90293 1.81227,-7.65461 3.10747,-11.38161c-0.57651,-0.23189 -0.95092,-0.6063 -0.95092,-0.6063l-1.38305,-1.46725c-1.91347,-3.00991 -4.06195,-5.56336 -6.42604,-8.22294c0,0 -1.66091,-1.86853 0.20761,-3.52944c1.86852,-1.66091 3.52943,0.20762 3.52943,0.20762c2.49005,2.80133 4.75994,5.52218 6.78807,8.67415c0.96019,-2.67392 1.9031,-5.36396 2.6896,-8.11671c0,0 0.6868,-2.40381 3.09062,-1.71701c2.40381,0.6868 1.71701,3.09061 1.71701,3.09061c-2.31518,8.10311 -6.06862,15.67467 -7.43783,23.89087l0.03402,0.42233c0,0 0,2.5 -2.5,2.5z" fill="#000000"/><path d="M163.13695,156.87559l-0.84943,0.85689c-0.51347,4.40906 -0.6057,8.6418 -0.6057,13.084c0,6.67074 1.40128,12.58279 2.1682,19.12157c0.56362,4.80545 0.87582,9.94188 5.44242,12.31977c1.86572,0.97151 4.80928,0.42363 6.76439,0.42363c4.27083,0 8.54167,0 12.8125,0c18.05,0.03525 35.98976,1.6771 54.0625,1.6771c7.27589,0 14.48253,-0.90602 21.73675,-1.33757c9.15044,-0.54436 18.47062,-0.00411 27.63825,-0.00411c0,0 2.5,0 2.5,2.68337c0,2.68337 -2.5,2.68336 -2.5,2.68336c-9.07433,0 -18.30507,-0.54556 -27.36175,-0.00411c-7.34645,0.4392 -14.6441,1.34579 -22.01325,1.34579c-18.07202,0 -36.01507,-1.71702 -54.0625,-1.6771c-4.27083,0 -8.54167,0 -12.8125,0c-2.93383,0 -6.08959,0.43794 -8.86061,-0.91805c-7.54783,-3.69351 -7.29997,-11.62746 -8.59688,-19.04989c-1.03275,-5.91058 -1.91751,-11.19852 -1.91751,-17.26375c0,-4.66048 0.10535,-9.12177 0.6443,-13.74966l1.65057,-3.16816c0,0 0.0635,-0.10225 0.18371,-0.24838c-0.05806,-2.01405 1.91508,-2.54351 1.91508,-2.54351c4.58423,-1.1962 9.33973,-0.75096 14.04384,-0.75096c7.87908,0 15.54667,0.12973 23.38743,1.02109c4.61163,0.52426 9.28821,-0.19727 13.79303,1.01154c19.56492,-0.10583 39.17756,0.65073 58.75704,0.65073c9.70098,0 19.55203,0.5574 29.23675,0.00411c3.80222,-0.21723 7.56367,-0.46414 11.38825,-0.33953c1.15345,0.03758 2.41093,-0.31939 3.45671,0.20426c4.84551,2.42627 6.29335,12.71679 6.81637,17.76924c1.8273,8.00931 1.28942,16.74239 1.28942,24.96035c0,3.50143 0.58169,6.64729 -1.89517,9.5138c-3.15574,3.65219 -7.74266,2.74851 -11.85242,2.2052l-1.41798,-0.4524c0,0 -2.37171,-0.84856 -1.58114,-3.39422c0.79057,-2.54567 3.16228,-1.69711 3.16228,-1.69711l0.45701,0.21844c2.02198,0.27579 5.98996,1.37592 7.52258,-0.47816c1.51447,-1.83213 0.60483,-6.32253 0.60483,-8.59892c0,-7.00439 0.41077,-14.52212 -1.21058,-21.3277c-0.39049,-3.77222 -1.44319,-7.11945 -2.42637,-10.74573c-0.05765,-0.21265 -0.66199,-2.76682 -1.38226,-3.01458c-1.38398,-0.47607 -2.90247,0.20426 -4.35579,0.20426c-2.82117,0 -5.49629,0.17468 -8.29925,0.33131c-9.78033,0.54655 -19.71762,0.00411 -29.51325,0.00411c-19.78843,0 -39.59203,-0.59484 -59.36796,-0.69095c-4.46,-1.19678 -9.13025,-0.48692 -13.70697,-1.00098c-7.66806,-0.86128 -15.15599,-0.99144 -22.86257,-0.99144c-3.83997,0 -7.8565,-0.45255 -11.63628,0.30623c-0.13387,0.50513 -0.34609,0.84681 -0.34609,0.84681z" fill="#000000"/></g></g></svg>