<svg version="1.1" xmlns="http://www.w3.org/2000/svg" xmlns:xlink="http://www.w3.org/1999/xlink" width="135.77958" height="57.84034" viewBox="0,0,135.77958,57.84034"><g transform="translate(-172.11021,-151.07983)"><g data-paper-data="{&quot;isPaintingLayer&quot;:true}" fill-rule="nonzero" stroke="none" stroke-width="0.5" stroke-linecap="butt" stroke-linejoin="miter" stroke-miterlimit="10" stroke-dasharray="" stroke-dashoffset="0" style="mix-blend-mode: normal"><path d="M180.02854,160.24837c0.08702,-0.50413 -0.08523,-1.13731 0.26145,-1.51351c0.75348,-0.81764 2.22407,0.00454 3.33594,0.0087c2.04181,0.00764 4.08667,-0.10164 6.1262,-0.00495c12.43281,0.58944 24.86012,0.60516 37.33163,0.60516c8.01514,0 16.27097,0.50843 24.26846,-0.00617c4.45767,-0.28683 8.83819,-1.35436 13.2755,-1.87735c7.27573,-0.85753 14.88462,-1.22164 22.21459,-1.22164c3.26055,0 9.07719,-0.96119 12.0325,0.82095c1.90281,1.14745 1.13579,6.37491 1.45145,8.08625c0.4998,2.70967 1.40774,5.36039 1.86746,8.08229c0.44686,2.6458 0.12957,5.21941 0.2838,7.87683c0.30793,5.30591 0.587,10.66083 -0.00277,15.96869c-0.0004,0.31093 0.48668,5.66007 -0.10707,6.08954c-0.99821,0.72202 -2.4192,0.48241 -3.64161,0.63553c-3.50322,0.43882 -7.40826,-0.01523 -10.94612,-0.01523c-11.40881,0 -22.56843,0.52744 -33.95707,-0.60126c-9.95845,-0.01178 -20.10885,0.47534 -30.05427,-0.0019c-3.77455,-0.18113 -7.45641,-1.03616 -11.24672,-1.25906c-6.17395,-0.36307 -12.45586,-0.24294 -18.6016,-0.93456c-4.22279,-0.52795 -10.05792,0.16846 -13.6713,-2.54886c-2.03162,-1.52781 -1.15558,-6.50737 -1.69827,-8.70435c-1.51559,-6.13556 0.13094,-12.2463 -0.24485,-18.63477c-0.18523,-3.14895 -1.09746,-6.18459 -1.22861,-9.29705c2.14021,0.60979 2.95126,-1.55331 2.95126,-1.55331z" data-paper-data="{&quot;noHover&quot;:false,&quot;origItem&quot;:[&quot;Path&quot;,{&quot;applyMatrix&quot;:true,&quot;selected&quot;:true,&quot;segments&quot;:[[[177.12531,161.81557],[2.14021,0.60979],[0.13115,3.11246],7],[[178.35538,171.10586],[-0.18523,-3.14895],[0.37579,6.38847],7],[[178.60012,189.72565],[-1.51559,-6.13556],[0.54269,2.19698],7],[[180.29678,198.42308],[-2.03162,-1.52781],[3.61338,2.71732],7],[[193.9658,200.96594],[-4.22279,-0.52795],[6.14575,0.69163],7],[[212.56096,201.89003],[-6.17395,-0.36307],[3.79032,0.2229],7],[[223.79724,203.13931],[-3.77455,-0.18113],[9.94542,0.47724],7],[[253.79724,203.13931],[-9.95845,-0.01178],[11.38864,1.1287],7],[[287.73521,203.7612],[-11.40881,0],[3.53786,0],7],[[298.67975,203.77994],[-3.50322,0.43882],[1.22241,-0.15312],7],[[302.32083,203.14577],[-0.99821,0.72202],[0.59375,-0.42947],7],[[302.42653,197.06045],[-0.0004,0.31093],[0.58976,-5.30786],7],[[302.42754,181.10405],[0.30793,5.30591],[-0.15423,-2.65743],7],[[302.14402,173.2335],[0.44686,2.6458],[-0.45972,-2.7219],7],[[300.27771,165.15775],[0.4998,2.70967],[-0.31566,-1.71134],7],[[298.82822,157.0777],[1.90281,1.14745],[-2.95531,-1.78214],7],[[286.79771,156.2612],[3.26055,0],[-7.32996,0],7],[[264.5908,157.49397],[7.27573,-0.85753],[-4.43731,0.52299],7],[[251.32805,159.38137],[4.45767,-0.28683],[-7.99749,0.5146],7],[[227.11021,159.3862],[8.01514,0],[-12.47152,0],7],[[189.79817,158.7581],[12.43281,0.58944],[-2.03953,-0.09669],7],[[183.67271,158.7612],[2.04181,0.00764],[-1.11187,-0.00416],7],[[180.33709,158.75164],[0.75348,-0.81764],[-0.34668,0.3762],7],[[180.07603,160.26401],[0.08702,-0.50413],[0,0],7]],&quot;closed&quot;:true}]}" fill="#ffffff"/><path d="M204.46328,187.63949c2.37171,0.79057 1.58114,3.16228 1.58114,3.16228l-0.78607,1.77391c-0.81961,0.89571 -1.41829,2.06155 -2.45881,2.68714c-5.07049,3.04851 -12.4456,-1.0481 -14.82167,-5.73969c-2.76962,-5.46866 -0.09596,-13.22388 3.41418,-17.61597c1.71575,-2.14685 3.0474,-3.92415 6.07037,-4.38103c1.13637,-0.17174 2.25275,0.45648 3.37913,0.68472c0,0 2.42536,0.60634 1.81902,3.03169c-0.60634,2.42535 -3.0317,1.81902 -3.0317,1.81902c-2.38986,-0.83347 -2.75734,-0.08256 -4.3005,1.92869c-2.32734,3.03331 -4.71914,8.52194 -2.83582,12.38403c1.73736,3.56276 6.52109,5.14805 8.96952,1.94745l-0.16107,-0.10109c0,0 0.79057,-2.37171 3.16228,-1.58114z" fill="#000000"/><path d="M233.6534,190.94629c-0.31009,2.48069 -2.79078,2.17061 -2.79078,2.17061l-3.09932,-0.46446c-1.33555,-0.91544 -2.62494,-1.90992 -3.83528,-2.98916c-0.35717,1.78667 -0.95529,3.4508 -2.02844,4.40086c-4.33605,3.83872 -11.5003,0.53584 -12.27223,-4.69808c-0.74097,-5.02406 3.45188,-8.36684 7.30231,-10.34092c0,0 2.00661,-1.0033 3.16853,0.79183c0.24024,-0.0768 0.49628,-0.11826 0.762,-0.11826c0.94657,0 1.77027,0.52607 2.19468,1.30179l1.08196,1.89343c2.00598,1.27687 3.52836,3.62377 5.44526,5.10105l1.90069,0.16054c0,0 2.48069,0.31008 2.17061,2.79078zM214.59306,188.78135c0.09262,1.5274 2.95331,2.58331 3.97777,1.55192c0.78324,-0.78854 0.8261,-3.87411 1.05223,-5.26066l-0.80337,-1.40589c-2.03034,1.00917 -4.38644,2.4791 -4.22663,5.11463z" fill="#000000"/><path d="M247.77626,193.73608c-2.47487,0.35356 -2.82843,-2.12132 -2.82843,-2.12132l-0.31832,-2.23097c-0.30667,-2.48995 -0.68257,-5.07822 -0.88992,-7.5482c-0.03168,-0.37744 0.47635,-0.7865 0.26959,-1.10386c-0.15128,-0.2322 -0.3974,0.41114 -0.65601,0.51075c-0.29633,0.11414 -3.06598,0.65935 -3.44746,1.06641c-0.90809,0.96898 -0.01724,2.77493 -0.68058,3.92537c-0.04956,0.08595 -0.10058,0.17088 -0.15294,0.25488l0.06635,0.02488l-0.91701,2.44535c-0.34031,0.9763 -1.269,1.67684 -2.36131,1.67684c-1.28703,0 -2.3469,-0.97255 -2.48481,-2.22282c-0.20833,-1.66666 -0.72505,-5.80043 -0.93339,-7.46709c0,0 -0.31009,-2.48069 2.17061,-2.79078c0.88131,-0.11016 1.48865,0.13191 1.90546,0.48985c2.18934,-1.89811 8.24014,-3.60433 10.56815,-1.85467c1.11436,0.83751 1.10279,2.56591 1.51959,3.89614c0.84145,2.68549 0.63591,5.32906 0.98508,8.0768l0.30668,2.14403c0,0 0.35355,2.47487 -2.12132,2.82843z" fill="#000000"/><path d="M270.44047,187.30594c1.76776,1.76776 0,3.53553 0,3.53553l-0.3125,0.3125c-0.84813,0.78434 -1.50572,1.84736 -2.54438,2.35303c-4.35735,2.12133 -13.29952,-0.63818 -15.02557,-5.49695c-1.2794,-3.60149 2.42408,-10.51651 5.6413,-12.11963c2.02533,-1.00921 4.33817,-0.47936 6.40847,-0.2349c0,0 2.4807,0.31008 2.17061,2.79078c-0.31009,2.48069 -2.79078,2.17061 -2.79078,2.17061c-3.16715,-0.42403 -4.12383,-0.43619 -5.55193,2.64429c-0.46691,1.00716 -1.5285,2.08318 -1.1483,3.12617c0.38342,1.05183 1.89587,1.19379 2.87746,1.73216c2.43406,1.33498 4.54773,1.67717 6.42759,-0.50108l0.3125,-0.3125c0,0 1.76776,-1.76776 3.53553,0z" fill="#000000"/><path d="M289.97128,188.89317c1.11804,2.23607 -1.11803,3.35411 -1.11803,3.35411l-0.11606,-0.02543c-0.98237,0.77385 -1.96474,1.54772 -2.94711,2.32157c-3.06124,0.11804 -7.10079,0.1786 -9.91161,-1.41922c-6.45249,-3.66792 -8.26715,-12.58147 -2.23586,-17.54006c3.43113,-2.82089 11.56417,-3.39921 13.37689,1.88473c1.47368,4.29566 -3.0266,7.92177 -6.47883,8.46111c-2.35034,0.36719 -3.47598,0.02447 -5.39489,-0.4719c1.32952,3.00268 5.97942,4.09347 8.90957,4.39592c0.47596,-0.47615 0.95193,-0.95228 1.42789,-1.42843l1.13394,-0.65043c0,0 2.23607,-1.11803 3.35411,1.11804zM275.81291,180.47222c2.20801,0.57549 6.06674,1.55215 6.38801,-1.66868c0.06505,-0.65215 -1.31059,-0.06113 -1.96571,-0.04234c-0.72385,0.02077 -1.46057,-0.22489 -2.17083,-0.08375c-0.88371,0.17559 -1.67336,0.9199 -2.25146,1.79477z" fill="#000000"/><path d="M293.36021,163.4487c2.5,0 2.5,2.5 2.5,2.5v0.625c0,2.24929 0.07536,4.45865 0.20942,6.65621c0.51131,4.4366 1.04798,8.88313 1.59889,13.31254c0.39502,1.69473 0.80823,3.54185 0.65466,4.60257c-0.00896,0.06187 -0.01848,0.12362 -0.02855,0.18524l0.05317,-0.00532l0.30915,3.09154c0.01041,0.09264 0.01576,0.1868 0.01576,0.28222c0,1.38071 -1.11929,2.5 -2.5,2.5c-1.28703,0 -2.3469,-0.97255 -2.48481,-2.22282l-0.30839,-2.4671c-0.02443,-0.19836 -0.04888,-0.39676 -0.07334,-0.5952c-1.10294,-1.20714 -0.99583,-6.08317 -1.17666,-7.5298c-0.45358,-3.62859 -0.8234,-7.17889 -1.04449,-10.75747c-0.17781,-1.53059 -0.35218,-3.06049 -0.52202,-4.58903c0,0 -0.09089,-0.81804 0.30101,-1.56752c-0.00252,-0.29808 -0.0038,-0.59674 -0.0038,-0.89606v-0.625c0,0 0,-2.5 2.5,-2.5z" fill="#000000"/><path d="M174.61021,156.2612c0.61584,0 1.07998,0.1517 1.42978,0.38037c0.21501,-0.62149 0.48397,-1.20232 0.96834,-1.6208c2.67338,-2.30975 9.80941,-1.41087 13.03892,-1.25647c12.34912,0.59043 24.67468,0.6219 37.06297,0.6219c7.91757,0 16.0054,0.48139 23.90716,0.00483c4.35891,-0.26289 8.64609,-1.3527 12.98725,-1.86259c7.46793,-0.87714 15.27171,-1.26724 22.79309,-1.26724c4.24053,0 11.16777,-0.99687 14.84449,1.68351c3.93938,2.87186 2.78593,7.29416 3.55051,11.29494c2.08778,10.92469 3.46887,21.91314 2.22618,33.0973c0.00431,3.01043 0.71857,7.13962 -1.76929,9.53968c-0.89966,0.8679 -2.35856,0.83297 -3.55804,1.18493c-3.65903,1.07363 -7.4557,0.69964 -11.23134,0.69964c-12.52206,0 -24.82145,0.63327 -37.31203,-0.6281c-9.94913,0.013 -20.06563,0.51434 -30,0c-3.79796,-0.19663 -7.45728,-1.02675 -11.26372,-1.25072c-6.2808,-0.36956 -12.64946,-0.26386 -18.90484,-0.95091c-5.20105,-0.65001 -12.10443,0.07086 -16.33098,-3.70713c-3.57607,-3.19654 -2.27156,-7.22714 -3.30334,-11.30258c-1.65776,-6.54799 0.01615,-12.76641 -0.38026,-19.50521c-0.20959,-3.56294 -1.23105,-6.90648 -1.25483,-10.46784v-2.1875c0,0 0,-2.5 2.5,-2.5zM177.12531,161.81557c0.13115,3.11246 1.04483,6.14134 1.23006,9.29029c0.37579,6.38847 -1.27085,12.48424 0.24474,18.61979c0.54269,2.19698 -0.33496,7.16961 1.69666,8.69742c3.61338,2.71732 9.44623,2.01492 13.66902,2.54287c6.14575,0.69163 12.42121,0.56101 18.59516,0.92409c3.79032,0.2229 7.46173,1.06815 11.23628,1.24928c9.94542,0.47724 20.04155,-0.01178 30,0c11.38864,1.1287 22.52916,0.6219 33.93797,0.6219c3.53786,0 7.44132,0.45755 10.94454,0.01873c1.22241,-0.15312 2.64287,0.08786 3.64108,-0.63416c0.59375,-0.42947 0.1053,-5.77439 0.10571,-6.08532c0.58976,-5.30786 0.30894,-10.65049 0.00101,-15.95641c-0.15423,-2.65743 0.16335,-5.22474 -0.28352,-7.87054c-0.45972,-2.7219 -1.36651,-5.36608 -1.86631,-8.07575c-0.31566,-1.71134 0.45331,-6.93261 -1.44949,-8.08006c-2.95531,-1.78214 -8.76997,-0.81649 -12.03051,-0.81649c-7.32996,0 -14.93118,0.37523 -22.20691,1.23276c-4.43731,0.52299 -8.80508,1.60058 -13.26275,1.88741c-7.99749,0.5146 -16.2027,0.00483 -24.21784,0.00483c-12.47152,0 -24.87923,-0.03866 -37.31203,-0.6281c-2.03953,-0.09669 -4.08366,0.01074 -6.12547,0.0031c-1.11187,-0.00416 -2.58214,-0.82721 -3.33562,-0.00957c-0.34668,0.3762 -0.17404,1.00825 -0.26106,1.51238c0,0 -0.8105,2.16134 -2.95072,1.55155z" fill="#000000"/></g></g></svg>