<svg version="1.1" xmlns="http://www.w3.org/2000/svg" xmlns:xlink="http://www.w3.org/1999/xlink" width="19.10394" height="20.6139" viewBox="0,0,19.10394,20.6139"><g transform="translate(-230.44803,-169.69305)"><g data-paper-data="{&quot;isPaintingLayer&quot;:true}" fill="#000000" fill-rule="nonzero" stroke="none" stroke-width="0.5" stroke-linecap="butt" stroke-linejoin="miter" stroke-miterlimit="10" stroke-dasharray="" stroke-dashoffset="0" style="mix-blend-mode: normal"><path d="M231.36818,189.648c-1.89814,-1.62698 -0.27116,-3.52512 -0.27116,-3.52512l1.39814,-1.62302c1.35338,-1.79571 2.84427,-3.49921 4.39041,-5.16452c-1.66633,-1.7899 -3.31693,-3.5949 -4.72054,-5.69873c0,0 -1.38675,-2.08012 0.69338,-3.46687c2.08013,-1.38675 3.46688,0.69338 3.46688,0.69338c1.19289,1.79075 2.57252,3.35453 3.98793,4.88051c1.63521,-1.69235 3.2656,-3.38584 4.8005,-5.14002c0,0 1.64626,-1.88144 3.5277,-0.23518c1.88144,1.64626 0.23518,3.5277 0.23518,3.5277c-1.64903,1.8846 -3.42211,3.6973 -5.19041,5.51642c0.43659,0.5029 0.86469,1.01715 1.27948,1.54879c1.1096,1.42216 1.96757,3.03963 3.16092,4.39227l0.25531,0.06614c0,0 2.08013,1.38675 0.69338,3.46687c-1.38675,2.08013 -3.46688,0.69338 -3.46688,0.69338l-1.24469,-0.93386c-1.24411,-1.43179 -2.17709,-3.10852 -3.33908,-4.60773c-0.26098,-0.33671 -0.52724,-0.66682 -0.79763,-0.99174c-1.3173,1.4377 -2.58102,2.91008 -3.73186,4.45321l-1.60186,1.87698c0,0 -1.62698,1.89814 -3.52512,0.27116z"/></g></g></svg>