<svg version="1.1" xmlns="http://www.w3.org/2000/svg" xmlns:xlink="http://www.w3.org/1999/xlink" width="34.32039" height="32.11374" viewBox="0,0,34.32039,32.11374"><g transform="translate(-222.8398,-163.94313)"><g data-paper-data="{&quot;isPaintingLayer&quot;:true}" fill="#000000" fill-rule="nonzero" stroke="none" stroke-width="0.5" stroke-linecap="butt" stroke-linejoin="miter" stroke-miterlimit="10" stroke-dasharray="" stroke-dashoffset="0" style="mix-blend-mode: normal"><path d="M229.31028,169.15315c-1.89968,0.00578 -6.37278,1.17982 -6.37278,-2.375c0,-3.43825 3.80794,-2.22627 5.61012,-2.52753c4.51945,-0.75548 11.73177,0.1141 16.63743,0.15253c3.12572,0.02449 6.25285,-0.08721 9.37745,0c0.0321,0.0009 0.06514,0.00147 0.09889,0.00192c1.33487,0.05192 2.40111,1.15049 2.40111,2.49808c0,0.91533 -0.49192,1.71577 -1.22581,2.15137c-0.22671,0.17878 -0.52853,0.28986 -0.98231,0.33177c-0.09575,0.01113 -0.19314,0.01686 -0.29188,0.01686c-8.42649,0.22979 -16.82461,-0.27563 -25.25222,-0.25z"/><path d="M232.52257,190.40315c5.03241,0.02849 11.87568,-0.31836 16.99758,0.5c1.13834,0.18188 5.06465,-0.56751 6.19466,0.5625c5.15626,5.15626 -4.96064,4.85408 -7.30728,4.29818c-1.83737,-0.43526 -5.17198,-0.3417 -7.44027,-0.36068c-3.54328,-0.02966 -6.39879,-0.09208 -9.56022,-0.125c-1.04454,-0.01088 -3.91191,0.17895 -5.7422,0.10406c-0.10639,0.01381 -0.21488,0.02094 -0.32504,0.02094c-0.28399,0 -0.55692,-0.04735 -0.81133,-0.13459c-0.98247,-0.33691 -1.68867,-1.26869 -1.68867,-2.36541c0,-1.38071 1.11929,-2.5 2.5,-2.5c0.06408,0 0.12761,0.00241 0.19048,0.00715c1.79023,-0.61641 3.99323,-0.02413 6.99228,-0.00715z"/><path d="M229.31028,182.15315c-1.89969,0.00577 -6.37278,1.17981 -6.37278,-2.375c0,-3.43825 3.80794,-2.22628 5.61012,-2.52753c4.51944,-0.75548 11.73176,0.1141 16.63742,0.15253c3.12572,0.02448 6.25286,-0.08721 9.37745,0c0.0321,0.0009 0.06514,0.00147 0.09889,0.00192c1.33488,0.05193 2.40111,1.15048 2.40111,2.49808c0,0.91533 -0.49192,1.71577 -1.22581,2.15137c-0.22671,0.17878 -0.52854,0.28986 -0.98231,0.33178c-0.09574,0.01113 -0.19314,0.01685 -0.29188,0.01685c-8.42649,0.22979 -16.82461,-0.27563 -25.25222,-0.25z"/></g></g></svg>