<svg version="1.1" xmlns="http://www.w3.org/2000/svg" xmlns:xlink="http://www.w3.org/1999/xlink" width="54.51692" height="43.62563" viewBox="-1,-0.34944,54.51692,43.62563"><g transform="translate(-213.86429,-158.74468)"><g data-paper-data="{&quot;isPaintingLayer&quot;:true}" fill="#000000" fill-rule="nonzero" stroke-linecap="butt" stroke-linejoin="miter" stroke-miterlimit="10" stroke-dasharray="" stroke-dashoffset="0" style="mix-blend-mode: normal"><path d="" stroke="none" stroke-width="0.5"/><path d="" stroke="none" stroke-width="0.5"/><path d="" stroke="none" stroke-width="0.5"/><path d="M214.14737,162.54764c-0.01024,-0.07422 -0.01828,-0.15107 -0.02397,-0.23064c-0.17812,-2.49365 2.31553,-2.67176 2.31553,-2.67176c4.82993,-0.34219 12.97096,-1.67984 17.34003,0.90726c1.58411,0.93801 2.21475,2.9665 3.56338,4.21967c1.26148,1.17219 4.56866,1.19845 6.12935,1.30585c3.52866,0.24284 7.15651,0.06138 10.69638,0.1845c1.77617,0.06178 4.99056,-0.24034 6.57416,0.67091c1.19213,0.68599 1.86071,2.02604 2.79107,3.03905c0.96952,5.63498 0.1289,11.31305 0.9644,16.95894c0.36414,2.46067 2.24236,6.22107 1.433,8.66726c-1.28257,3.87641 -5.97876,4.91591 -9.41576,5.17219c-8.32848,0.62101 -16.47346,-0.18886 -24.76177,-0.18371c-3.56741,0 -7.32199,0.32138 -10.86129,-0.20339c-1.26381,-0.18739 -2.71587,-0.02899 -3.75397,-0.77377c-3.11729,-2.23649 -3.08663,-6.60156 -3.20848,-9.94779c-0.29081,-7.98612 0.55767,-15.96871 0.57231,-23.94049l-0.35957,-2.47249c0,0 -0.04255,-0.29782 0.00519,-0.7016zM219.37037,164.52245l0.11879,0.84484c0.01237,7.20028 -0.55912,14.34877 -0.56132,21.557c-0.00044,1.4467 -0.61786,7.60292 0.95236,8.50484c1.16161,0.66722 2.67683,0.11307 4.01561,0.15964c2.61026,0.09079 5.24535,-0.00159 7.85735,-0.00159c7.27092,0.00422 14.37931,0.42599 21.68017,0.19042c1.09459,-0.03532 7.39234,0.41138 7.71402,-1.63479c0.25732,-1.63675 -1.34939,-4.81781 -1.59422,-6.46886c-0.76569,-5.1635 -0.11168,-10.40764 -0.54921,-15.58372c-1.17675,-1.42648 -3.29911,-0.77226 -5.01409,-0.83087c-3.59782,-0.12295 -7.2859,0.05391 -10.8726,-0.1939c-2.97764,-0.20573 -6.58764,-0.52143 -9.00678,-2.47818c-1.21898,-0.98599 -1.51815,-2.93179 -2.86947,-3.72679c-1.62261,-0.9546 -4.6743,-0.47555 -6.39916,-0.41239c-1.8331,0.06712 -3.64925,0.03843 -5.47146,0.07435z" stroke="#000000" stroke-width="2.5"/></g></g></svg>