<svg version="1.1" xmlns="http://www.w3.org/2000/svg" xmlns:xlink="http://www.w3.org/1999/xlink" width="48.498" height="46.82028" viewBox="0,0,48.498,46.82028"><g transform="translate(-215.751,-156.58987)"><g data-paper-data="{&quot;isPaintingLayer&quot;:true}" fill="#000000" fill-rule="nonzero" stroke="none" stroke-width="0.5" stroke-linecap="butt" stroke-linejoin="miter" stroke-miterlimit="10" stroke-dasharray="" stroke-dashoffset="0" style="mix-blend-mode: normal"><path d=""/><path d=""/><path d=""/><path d="M230.59708,163.7096c-0.13573,-0.51494 -0.15917,-0.97227 0.05134,-1.25589c0.03918,-1.82673 0.28216,-3.56886 0.92672,-4.08711c3.07209,-2.47009 10.19276,-2.14985 13.73908,-0.35381c1.34103,0.67917 2.27007,3.21096 2.42129,5.54621c0.00705,0 0.01411,0 0.02117,0c-0.00091,0.09956 -0.00295,0.19843 -0.00613,0.29651c0.00091,0.02487 0.00172,0.04971 0.00245,0.07451c-0.0017,0 -0.00339,0 -0.00509,0c-0.01441,0.37407 -0.04567,0.73579 -0.09481,1.07818c0.04863,0.01925 0.0972,0.0387 0.14569,0.05836c-0.12691,0.54563 -0.33236,1.09667 -0.2181,1.65144c0.34089,1.65496 1.74745,0.23208 2.10141,-0.4711c0.20676,-0.41352 0.36331,-0.83692 0.50799,-1.26111c0.77883,-1.5544 2.06687,-2.83392 3.15058,-3.10485c4.1627,-1.04068 10.96683,7.38664 10.32598,11.46124c-0.08237,0.52377 -0.48285,1.07024 -1.06675,1.57779c-1.07746,1.48208 -3.26923,2.82682 -4.34672,3.16634c0.00657,0.06022 0.01276,0.12045 0.01858,0.18071c-1.0132,0.23918 -2.30736,1.31687 -1.11022,2.2483c0.0244,0.01899 0.04995,0.03678 0.07655,0.05345c0.00106,0.07653 0.04194,0.13786 0.04194,0.13786c0.89768,1.3017 2.586,2.11551 3.6996,3.23879c1.18245,1.18245 2.23696,2.23914 3.20331,3.50508c0.35595,2.00834 -0.68912,4.0937 -4.04807,6.14375c-1.26104,0.76964 -2.231,2.59796 -3.68368,2.96113c-1.27121,0.3178 -3.55067,-0.53361 -5.00274,-1.86455c-0.42401,-0.20206 -0.81619,-0.38974 -1.15333,-0.5358c-0.19294,0.12547 -0.38848,0.24699 -0.58653,0.36443c0.11082,0.58857 0.13917,1.23769 0.09815,1.90605c0.33489,1.20564 0.49259,2.49425 -0.42113,3.01639c-0.10336,0.17513 -0.2291,0.33546 -0.37329,0.47709c-0.46137,1.14285 -1.08651,2.09584 -1.78835,2.58421c-2.52103,1.75427 -11.81088,0.82289 -13.87581,-1.5862c-0.54326,-0.6338 -1.21112,-3.13964 -1.4536,-5.16759c-0.16065,-0.523 -0.31194,-1.00433 -0.45326,-1.39428c0.00575,-0.08501 0.00759,-0.1729 0.00571,-0.26221c0.1178,-0.56665 0.10231,-1.09786 -0.26388,-1.22563c-0.30158,-0.62548 -0.83043,-0.76625 -1.42539,0.72115c-0.00641,0.01602 -0.0128,0.03204 -0.01917,0.04802c-0.23093,0.11823 -0.46657,0.26965 -0.70447,0.44187c-2.04567,2.22739 -5.36762,4.2645 -6.7194,3.10584c-2.24197,-1.92168 -6.5637,-8.00112 -6.5637,-10.88678c0,-1.11076 0.74635,-2.22936 1.80304,-3.10788c0.61775,-0.93494 1.99544,-1.6685 3.16485,-2.19236c-0.00026,-0.00311 -0.00052,-0.00617 -0.00076,-0.00918c0.56484,-0.0627 0.88917,-0.2482 0.95064,-0.41385c0.96918,-0.21393 2.1966,-0.79025 0.81129,-1.48675c-0.15894,-0.07991 -0.34175,-0.13983 -0.5371,-0.18876c-0.04184,-0.0243 -0.08742,-0.05131 -0.13533,-0.07927l-0.11445,-0.17167l-0.06736,0.04491l-0.05225,-0.03483c-0.09513,-0.1346 -0.21233,-0.25278 -0.34508,-0.34128l-0.19758,-0.13172c-0.03729,-0.02565 -0.08247,-0.04066 -0.13115,-0.04066c-0.104,0 -0.19199,0.06853 -0.2213,0.16289c-0.00257,-0.00167 -0.00512,-0.00335 -0.00768,-0.00502c-1.73066,-0.34506 -3.45835,-2.01058 -4.40716,-3.90821c-1.62582,-3.25164 5.12493,-11.97079 8.62293,-11.31165c0.38104,0.0718 0.82471,0.24332 1.29355,0.48954c0.5676,-0.12583 1.13881,-0.01207 1.59388,0.51885c0.20461,0.23871 0.49941,0.6295 0.84114,1.0345c0.11987,0.23601 0.26539,0.45973 0.46276,0.66069c1.95596,1.95597 2.44914,-0.26225 1.63401,-1.38622c-0.01301,-0.22706 -0.02453,-0.46162 -0.03428,-0.70155c-0.02701,0.00376 -0.05387,0.00768 -0.08055,0.01175zM242.61895,161.43086c-0.02444,-0.03631 -0.05019,-0.07149 -0.07732,-0.10549c-1.3282,-1.66379 -4.75681,-0.20012 -7.12982,-0.08615c-0.21857,0.0105 -0.28908,0.34365 -0.28453,0.85171c0.03167,0.03036 0.06302,0.06131 0.09403,0.09284c0.05267,1.44631 0.60276,2.44745 1.0003,3.7371c-0.47109,1.94187 -0.1242,2.61382 -1.29918,4.31762l-0.13348,0.20022c0,0 -0.03078,0.04615 -0.03961,0.10835c-2.58387,1.46843 -7.08321,0.30544 -8.81039,-1.58768c-0.27433,-0.30069 -0.71181,-0.66578 -1.12272,-1.07747c-0.01397,0.00562 -0.02788,0.01131 -0.04173,0.01711c-0.0815,-0.03362 -0.16457,-0.05583 -0.24959,-0.06479c-0.15796,-0.01662 -0.54857,0.39345 -1.01558,0.98609c-0.34573,0.37398 -0.64761,0.81143 -0.93097,1.27125c-0.01029,0.01487 -0.02055,0.02977 -0.0308,0.04467c-0.8701,0.44797 -1.47322,1.34162 -1.50771,2.37926c0.0064,0.01134 0.01271,0.02274 0.01892,0.0342c1.62343,1.01984 3.53763,2.37506 4.9251,3.9032l0.02649,0.15892l0.1006,-0.01676c0.00232,0.00263 0.00463,0.00527 0.00695,0.0079c0.18486,0.74447 0.78386,1.18711 1.25505,1.88938l0.05797,0.11596c0.01625,0.03429 0.04068,0.06395 0.07077,0.08647c0.61653,1.42531 0.55821,2.92254 -0.69773,4.38781c-0.44255,0.51632 -2.4102,1.54496 -4.31327,2.37456c-0.0072,0.02581 -0.01371,0.05176 -0.01951,0.07783c-0.01487,0.06694 -0.02849,0.13369 -0.04087,0.20024c-0.92569,0.28553 -2.12738,0.43157 -1.73141,1.02457c0.52051,0.77952 2.46327,4.68351 3.32254,5.11973c0.52396,-0.56504 1.12156,-1.03823 1.70324,-1.30215c1.86529,-0.84632 3.69786,-1.57799 5.33255,-1.60472c0.04026,-0.03211 0.07991,-0.06426 0.11875,-0.0964c0.05222,0.03328 0.1047,0.06618 0.15743,0.09875c1.14367,0.03912 2.18299,0.45005 3.05892,1.44374c0.05739,0.02046 0.1149,0.04066 0.17253,0.06062l-0.01192,0.07152l0.06745,0.01124c-0.03419,0.28663 0.06405,0.48655 0.27466,0.90253l0.06091,0.24363c0.02341,0.10317 0.11568,0.18019 0.22593,0.18019c0.05522,0 0.10594,-0.01932 0.14574,-0.05158c0.10314,0.20497 0.20268,0.42279 0.29846,0.65402c0.27805,0.67126 1.18165,2.29489 1.03838,2.92499c-0.02706,0.11902 -0.02938,0.24137 -0.01257,0.36639c0.00638,0.00734 0.01278,0.01467 0.01919,0.02198c-0.00553,-0.00116 -0.01105,-0.00233 -0.01658,-0.00349c0.11084,0.74365 0.88544,1.58104 1.14598,2.38359c1.75267,0.52172 5.45685,0.39869 6.81121,0.37231c0.34127,-0.00664 0.20896,-0.94706 0.11636,-2.11994c-0.0149,0.00293 -0.0298,0.00583 -0.04472,0.00872c0.16498,-0.20661 0.31393,-0.42816 0.44651,-0.66151c-0.34459,-1.20912 -1.04408,-2.00572 -0.49811,-3.7867c0.58673,-1.91393 2.09586,-2.65249 3.88756,-2.725c0.0425,0.0134 0.07714,0.0134 0.07714,0.0134c0.40583,0 0.84653,-0.01306 1.30247,-0.02512c0.02732,0.02809 0.05483,0.05597 0.08253,0.08365c2.06313,0.26428 4.2614,1.15833 5.7706,2.0261c0.93658,-0.70213 2.71343,-2.33884 3.376,-3.10001c-0.06439,-0.01527 -0.13012,-0.03228 -0.1972,-0.05108c-1.54678,-0.43356 -4.0624,-3.66967 -5.14096,-4.928c-3.28586,-3.8335 -0.12279,-8.75331 3.64107,-10.1288c0.01056,-0.00386 0.02107,-0.00778 0.03156,-0.0118c0.25488,-0.30736 0.44282,-0.62455 0.50469,-0.93565c0.184,-0.14372 0.3472,-0.29941 0.47674,-0.47459c0.12376,-0.16735 -0.30379,-0.79154 -0.90815,-1.52709c-0.18191,-0.3258 -0.42747,-0.61122 -0.71985,-0.83944c-0.81025,-0.91326 -1.67542,-1.80447 -1.97246,-2.09877c-0.00833,0.01104 -0.01598,0.02171 -0.02289,0.032c-1.11251,1.6564 -1.69763,3.58172 -3.56161,4.51371c-2.76956,1.38479 -8.90836,-1.47284 -8.89844,-4.68139c0.00146,-0.47318 -0.13549,-1.55535 -0.19383,-2.79172c-0.16291,-0.78151 -0.13328,-1.54544 0.14514,-2.02573c0.07268,-0.3213 0.17258,-0.62265 0.30704,-0.89104z"/><path d="M246.6284,175.03886l0.52148,0.52148l0.11872,0.19786l0.17073,0.15522l0.20859,0.31288l0.04344,0.12163l0.05843,0.09182l0.22602,0.19373l0.00982,0.17689l0.17046,0.26786l0.00852,0.00487l0.0035,0.01401l0.0629,0.09886l0.1043,0.31288l0.02856,0.37133l0.01283,0.05129l0.0629,0.09885l0.1043,0.31289l0.00697,0.09058l0.04275,0.08016l0.10429,0.41717v0.28521l0.06917,0.27668v0.83435l-0.09032,0.3613l-0.02857,0.37132l-0.10429,0.31289l-0.01996,0.03137l-0.09455,0.37821l-0.09391,0.42257l-0.00017,0.00221l-0.00096,0.00288l-0.02044,0.09199l-0.02887,0.05774l-0.01613,0.06455l-0.00739,0.00422l-0.13479,0.40438l-0.07431,0.11676l-0.08457,0.33827l-0.12006,0.22512l-0.03378,0.15199l-0.00017,0.00221l-0.00096,0.00288l-0.02043,0.09199l-0.03066,0.06133l-0.05223,0.15669l-0.24538,0.3856l-0.00982,0.17688l-0.22602,0.19374l-0.15982,0.25114l-0.02739,0.00548l-0.00396,0.07112l-0.34868,0.29887l-0.05082,0.0593l-0.03268,0.04901l-0.04229,0.03844l-0.14694,0.17143l-0.08344,0.16687l-0.24237,0.28276l-0.1916,0.31935l-0.62577,0.62577l-0.31935,0.1916l-0.28276,0.24237l-0.83436,0.41718l-0.16277,0.03618l-0.14068,0.08952l-0.15669,0.05223l-0.06132,0.03066l-0.09199,0.02044l-0.00288,0.00096l-0.00221,0.00017l-0.15199,0.03378l-0.22512,0.12006l-0.41718,0.1043h-0.05443l-0.19962,0.04436l-0.51644,0.12911h-0.06455l-0.06495,0.01444l-0.02166,-0.01444h-2.35191l-0.3613,-0.09032l-0.37132,-0.02856l-0.22848,-0.07616l-0.74804,-0.18702l-0.22512,-0.12007l-0.24907,-0.05534l-0.20859,-0.1043l-0.11116,-0.09526l-0.13786,-0.04924l-0.06564,-0.04376l-0.14657,-0.02931l-0.27965,-0.13247l-0.205,-0.04556l-0.00221,-0.00017l-0.00288,-0.00096l-0.09199,-0.02044l-0.06133,-0.03066l-0.15669,-0.05223l-0.02876,-0.0183l-0.38622,-0.08582l-0.00221,-0.00017l-0.00288,-0.00096l-0.09199,-0.02044l-0.05774,-0.02888l-0.0207,-0.00517l-0.02128,0.0058l-0.05706,-0.03423l-0.06124,-0.02042l-0.44911,-0.28579l-0.45646,-0.27388l-0.04565,-0.04565l-0.05614,-0.03571l-0.0051,-0.02552l-0.04379,-0.04379l-0.4349,-0.28994l-0.15522,-0.17074l-0.19787,-0.11872l-0.52148,-0.52148l-0.11872,-0.19787l-0.17074,-0.15522l-0.20859,-0.31289l-0.04924,-0.13787l-0.09527,-0.11115l-0.03978,-0.07958l-0.12859,-0.19287l-0.13335,-0.37338l-0.18658,-0.34983l-0.10429,-0.41718v-0.05443l-0.04436,-0.19962l-0.12911,-0.51643v-0.06455l-0.01443,-0.06496l0.01443,-0.02165v-1.83044l0.06918,-0.27668v-0.2852l0.03512,-0.14049v-0.02768l0.09033,-0.36129l0.02857,-0.37132l0.73006,-2.19019l0.05199,-0.0817l-0.00234,-0.0086l0.04555,-0.07592l0.03051,-0.13725l0.10429,-0.20859l0.24237,-0.28275l0.1916,-0.31935l0.04638,-0.04638l0.00133,-0.002l0.03979,-0.07958l0.24237,-0.28276l0.1916,-0.31935l0.67792,-0.67792l0.15645,-0.26074l0.21315,-0.21315l0.00386,-0.06954l0.34868,-0.29887l0.29887,-0.34868l0.11541,-0.00641l0.14361,-0.1231l0.28817,-0.14408l0.19287,-0.12858l0.13787,-0.04924l0.11115,-0.09526l0.28198,-0.14099l0.01291,-0.02259l0.06455,-0.01614l0.05773,-0.02887l0.51965,-0.11548l0.51643,-0.12911h0.02768l0.1405,-0.03512h0.2852l0.27668,-0.06918h1.2843l0.55229,-0.49416l1.00081,0.07699h0.08286l0.03683,0.00921l0.06969,0.00536l0.05413,-0.02706l0.49146,0.17553l0.50627,0.12657l0.03894,0.06815l0.08779,0.03135l0.19287,0.12858l0.28817,0.14408l0.11116,0.09527l0.13787,0.04924l0.62576,0.41718l0.15522,0.17074l0.19787,0.11872l0.04637,0.04638l0.002,0.00133l0.07958,0.03979l0.28276,0.24237l0.2734,0.16404l0.07767,-0.00536l0.32512,0.29557l0.3707,0.2359l0.01909,0.09545l0.4006,0.24037l0.04564,0.04564l0.05614,0.03572l0.0051,0.02552l0.19387,0.19387l0.28546,0.21409l0.10515,0.12942zM241.4442,177.11648c-0.20056,0 -0.39516,-0.02549 -0.58075,-0.07339l-0.03356,0.00916l-0.05807,-0.03484c-0.2736,-0.08285 -0.52581,-0.21494 -0.7463,-0.38596l-0.08986,-0.02246l-0.37132,-0.02856l-0.2691,-0.0897h-1.00755l-0.14049,0.03513h-0.17386l-0.14588,0.09725l-0.11678,0.04171l-0.05161,0.08601l-0.36503,0.36504l-0.15644,0.26074l-0.5223,0.52231l-0.0226,0.06327l-0.20858,0.31288l-0.12595,0.11449l-0.59098,1.77295l-0.00611,0.0244v0.28521l-0.03512,0.14049v1.27724l0.03512,0.06586l0.02215,0.08856l0.02005,0.05616l0.09527,0.11116l0.03978,0.07958l0.00133,0.00199l0.19705,0.19705l0.43489,0.28993l0.15522,0.17074l0.10464,0.06278l0.23061,0.01774l0.31289,0.1043l0.09885,0.0629l0.01401,0.0035l0.00032,0.00057l0.33861,0.06772l0.27965,0.13246l0.30208,0.06713l0.20859,0.10429l0.11115,0.09527l0.13787,0.04924l0.10414,0.06943l0.52849,0.13212l0.06585,0.03512h1.76906l0.06585,-0.03512l0.33828,-0.08457l0.11676,-0.0743l0.15669,-0.05223l0.35083,-0.17541l0.09409,-0.09409l0.04046,-0.08091l0.24237,-0.28276l0.1916,-0.31935l0.04638,-0.04638l0.06437,-0.09655l0.00197,-0.03546l0.27377,-0.23467l0.01389,-0.02779l0.1231,-0.14361l0.00641,-0.11541l0.17705,-0.15177l0.0395,-0.15797l0.12006,-0.22512l0.03378,-0.15199l0.00017,-0.00221l0.00096,-0.00288l0.02043,-0.09199l0.03066,-0.06133l0.15653,-0.46957l0.01996,-0.03137l0.09456,-0.37821l0.07948,-0.35767v-0.19652l-0.01354,-0.05417l-0.00237,-0.00709l-0.00739,-0.00422l-0.01613,-0.06455l-0.02887,-0.05774l-0.02044,-0.09199l-0.00096,-0.00288l-0.00017,-0.00221l-0.06458,-0.29064l-0.09722,-0.08333l-0.00982,-0.17688l-0.18761,-0.29482l-0.21603,-0.21604l-0.28546,-0.21409l-0.10515,-0.12942l-0.14298,-0.08579l-0.07554,-0.07554l-0.06048,0.00417l-0.32512,-0.29557l-0.3707,-0.2359l-0.01909,-0.09545l-0.34381,-0.20628c-0.0969,0.01235 -0.19565,0.01872 -0.2959,0.01872z"/></g></g></svg>