<svg version="1.1" xmlns="http://www.w3.org/2000/svg" xmlns:xlink="http://www.w3.org/1999/xlink" width="54.89285" height="53.08285" viewBox="0.25,0.25,54.89285,53.08285"><g transform="translate(-212.26648,-153.20859)"><g data-paper-data="{&quot;isPaintingLayer&quot;:true}" fill="#000000" fill-rule="nonzero" stroke-width="0.5" stroke-linecap="butt" stroke-linejoin="miter" stroke-miterlimit="10" stroke-dasharray="" stroke-dashoffset="0" style="mix-blend-mode: normal"><path d="" stroke="none"/><path d="" stroke="none"/><path d="" stroke="none"/><path d="M229.43979,161.70461c-0.15244,-0.57832 -0.17876,-1.09194 0.05766,-1.41046c0.044,-2.05156 0.31689,-4.00811 1.04078,-4.59014c3.4502,-2.7741 11.44727,-2.41445 15.43006,-0.39736c1.50608,0.76276 2.54947,3.60616 2.7193,6.22883c0.00792,0 0.01585,0 0.02378,0c-0.00102,0.11181 -0.00331,0.22285 -0.00688,0.333c0.00102,0.02793 0.00193,0.05583 0.00275,0.08368c-0.00191,0 -0.00381,0 -0.00572,0c-0.01618,0.42011 -0.05129,0.82635 -0.10648,1.21088c0.05462,0.02162 0.10916,0.04346 0.16362,0.06554c-0.14253,0.61279 -0.37327,1.23165 -0.24494,1.8547c0.38285,1.85865 1.96252,0.26064 2.36005,-0.52908c0.23221,-0.46442 0.40803,-0.93993 0.57051,-1.41633c0.87469,-1.74571 2.32126,-3.18271 3.53835,-3.48699c4.67504,-1.16876 12.31661,8.29577 11.59688,12.87187c-0.09251,0.58823 -0.54228,1.20196 -1.19804,1.77198c-1.21007,1.66449 -3.6716,3.17474 -4.88171,3.55605c0.00738,0.06763 0.01433,0.13527 0.02087,0.20295c-1.1379,0.26862 -2.59135,1.47895 -1.24686,2.52502c0.0274,0.02133 0.0561,0.04131 0.08597,0.06003c0.00119,0.08595 0.0471,0.15483 0.0471,0.15483c1.00816,1.46191 2.90428,2.37588 4.15494,3.63741c1.32798,1.32798 2.51228,2.51473 3.59757,3.93648c0.39976,2.25552 -0.77394,4.59755 -4.5463,6.89991c-1.41625,0.86437 -2.50559,2.91771 -4.13706,3.32558c-1.42767,0.35691 -3.98768,-0.59929 -5.61847,-2.09404c-0.4762,-0.22693 -0.91665,-0.43771 -1.29528,-0.60175c-0.21669,0.14091 -0.43629,0.27739 -0.65872,0.40928c0.12446,0.66101 0.1563,1.39002 0.11023,2.14064c0.37611,1.35403 0.55322,2.80124 -0.47296,3.38764c-0.11608,0.19668 -0.2573,0.37675 -0.41923,0.53581c-0.51815,1.28351 -1.22024,2.35379 -2.00846,2.90227c-2.83131,1.97018 -13.26454,0.92417 -15.58362,-1.78143c-0.61012,-0.71181 -1.36018,-3.52606 -1.63251,-5.80361c-0.18042,-0.58737 -0.35033,-1.12794 -0.50905,-1.56589c0.00646,-0.09547 0.00852,-0.19418 0.00641,-0.29448c0.1323,-0.63639 0.1149,-1.23298 -0.29636,-1.37648c-0.3387,-0.70246 -0.93264,-0.86056 -1.60082,0.80991c-0.0072,0.01799 -0.01438,0.03598 -0.02153,0.05393c-0.25935,0.13278 -0.52399,0.30284 -0.79117,0.49625c-2.29745,2.50153 -6.02826,4.78937 -7.54641,3.4881c-2.51791,-2.1582 -7.37155,-8.98588 -7.37155,-12.2267c0,-1.24747 0.83821,-2.50375 2.02495,-3.49039c0.69378,-1.05001 2.24104,-1.87386 3.55437,-2.46219c-0.00029,-0.00349 -0.00058,-0.00693 -0.00085,-0.01031c0.63436,-0.07042 0.99861,-0.27875 1.06764,-0.46479c1.08846,-0.24026 2.46695,-0.88751 0.91114,-1.66974c-0.1785,-0.08975 -0.38381,-0.15704 -0.60321,-0.21199c-0.04699,-0.02729 -0.09818,-0.05763 -0.15199,-0.08903l-0.12854,-0.1928l-0.07565,0.05044l-0.05868,-0.03912c-0.10684,-0.15117 -0.23846,-0.28389 -0.38755,-0.38328l-0.2219,-0.14793c-0.04188,-0.02881 -0.09262,-0.04566 -0.14729,-0.04566c-0.1168,0 -0.21562,0.07696 -0.24854,0.18294c-0.00289,-0.00188 -0.00575,-0.00376 -0.00863,-0.00564c-1.94367,-0.38753 -3.884,-2.25804 -4.94959,-4.38923c-1.82592,-3.65185 5.7557,-13.44413 9.68422,-12.70387c0.42794,0.08064 0.92621,0.27327 1.45276,0.54979c0.63746,-0.14132 1.27897,-0.01356 1.79005,0.58271c0.22979,0.26809 0.56088,0.70698 0.94467,1.16182c0.13462,0.26506 0.29805,0.51631 0.51972,0.74201c2.1967,2.19671 2.75058,-0.29453 1.83512,-1.55683c-0.01461,-0.25501 -0.02755,-0.51844 -0.0385,-0.7879c-0.03033,0.00422 -0.0605,0.00863 -0.09046,0.0132zM242.94129,159.1454c-0.02745,-0.04078 -0.05637,-0.08029 -0.08684,-0.11847c-1.49167,-1.86857 -5.34227,-0.22475 -8.00735,-0.09675c-0.24547,0.01179 -0.32466,0.38595 -0.31955,0.95654c0.03557,0.0341 0.07078,0.06886 0.1056,0.10427c0.05915,1.62432 0.67695,2.74868 1.12342,4.19706c-0.52907,2.18087 -0.13949,2.93552 -1.45908,4.84902l-0.14991,0.22486c0,0 -0.03457,0.05183 -0.04449,0.12169c-2.90189,1.64916 -7.955,0.34303 -9.89476,-1.78309c-0.30809,-0.3377 -0.79942,-0.74772 -1.2609,-1.21008c-0.01569,0.00631 -0.03131,0.0127 -0.04687,0.01922c-0.09153,-0.03776 -0.18482,-0.0627 -0.28031,-0.07276c-0.1774,-0.01867 -0.61609,0.44188 -1.14058,1.10746c-0.38828,0.42001 -0.72732,0.9113 -1.04555,1.42771c-0.01156,0.0167 -0.02308,0.03343 -0.03459,0.05017c-0.97719,0.50311 -1.65454,1.50674 -1.69328,2.67209c0.00719,0.01274 0.01427,0.02554 0.02125,0.03841c1.82324,1.14536 3.97304,2.66738 5.53127,4.3836l0.02975,0.17848l0.11298,-0.01882c0.00261,0.00295 0.0052,0.00592 0.00781,0.00887c0.20761,0.8361 0.88034,1.33322 1.40952,2.12192l0.0651,0.13023c0.01825,0.03851 0.04569,0.07182 0.07948,0.09711c0.69241,1.60073 0.62691,3.28224 -0.78361,4.92785c-0.49702,0.57987 -2.70684,1.73511 -4.84414,2.66682c-0.00809,0.02899 -0.0154,0.05813 -0.02191,0.08741c-0.0167,0.07518 -0.032,0.15014 -0.0459,0.22489c-1.03962,0.32067 -2.38921,0.48469 -1.94451,1.15067c0.58457,0.87546 2.76644,5.25995 3.73147,5.74986c0.58845,-0.63458 1.2596,-1.16601 1.91287,-1.46242c2.09487,-0.95048 4.15299,-1.77221 5.98887,-1.80223c0.04522,-0.03606 0.08975,-0.07217 0.13337,-0.10826c0.05865,0.03738 0.11759,0.07433 0.17681,0.1109c1.28443,0.04393 2.45167,0.50544 3.43541,1.62143c0.06445,0.02298 0.12904,0.04566 0.19376,0.06808l-0.01339,0.08032l0.07575,0.01262c-0.0384,0.32191 0.07193,0.54643 0.30846,1.01361l0.06841,0.27362c0.02629,0.11587 0.12992,0.20237 0.25374,0.20237c0.06202,0 0.11898,-0.0217 0.16368,-0.05793c0.11583,0.2302 0.22763,0.47483 0.33519,0.73452c0.31227,0.75388 1.32709,2.57734 1.16618,3.28499c-0.03039,0.13367 -0.033,0.27108 -0.01412,0.41148c0.00717,0.00824 0.01435,0.01648 0.02155,0.02469c-0.00621,-0.0013 -0.01241,-0.00262 -0.01862,-0.00392c0.12448,0.83518 0.99442,1.77563 1.28703,2.67696c1.96839,0.58593 6.12847,0.44776 7.64952,0.41813c0.38327,-0.00746 0.23468,-1.06362 0.13068,-2.38086c-0.01673,0.00329 -0.03347,0.00655 -0.05022,0.00979c0.18529,-0.23204 0.35257,-0.48086 0.50147,-0.74293c-0.387,-1.35794 -1.17258,-2.25258 -0.55942,-4.25276c0.65894,-2.14949 2.35381,-2.97895 4.36603,-3.06039c0.04773,0.01505 0.08663,0.01505 0.08663,0.01505c0.45578,0 0.95072,-0.01467 1.46278,-0.02821c0.03068,0.03155 0.06158,0.06286 0.09269,0.09395c2.31706,0.29681 4.78589,1.3009 6.48083,2.27547c1.05185,-0.78855 3.04739,-2.6267 3.79151,-3.48155c-0.07232,-0.01715 -0.14613,-0.03625 -0.22147,-0.05737c-1.73715,-0.48692 -4.56239,-4.12133 -5.7737,-5.53453c-3.69028,-4.30532 -0.1379,-9.83065 4.08921,-11.37543c0.01186,-0.00434 0.02366,-0.00874 0.03544,-0.01325c0.28625,-0.34519 0.49732,-0.70142 0.56681,-1.05081c0.20665,-0.16141 0.38993,-0.33626 0.53542,-0.533c0.13899,-0.18795 -0.34118,-0.88896 -1.01992,-1.71504c-0.2043,-0.3659 -0.48008,-0.68645 -0.80845,-0.94276c-0.90997,-1.02566 -1.88163,-2.02656 -2.21523,-2.35708c-0.00936,0.0124 -0.01795,0.02438 -0.02571,0.03594c-1.24944,1.86027 -1.90657,4.02255 -3.99997,5.06925c-3.11043,1.55523 -10.00478,-1.65411 -9.99364,-5.25757c0.00164,-0.53142 -0.15217,-1.74678 -0.21769,-3.13532c-0.18296,-0.8777 -0.14968,-1.73565 0.163,-2.27505c0.08163,-0.36085 0.19382,-0.69928 0.34483,-1.00071z" stroke="#000000"/><path d="M247.44422,174.42825l0.58566,0.58566l0.13333,0.22221l0.19174,0.17432l0.23426,0.35139l0.04879,0.1366l0.06562,0.10312l0.25384,0.21757l0.01103,0.19866l0.19144,0.30083l0.00957,0.00547l0.00393,0.01573l0.07064,0.11103l0.11714,0.35139l0.03208,0.41703l0.01441,0.0576l0.07064,0.11102l0.11714,0.3514l0.00783,0.10173l0.04801,0.09003l0.11713,0.46851v0.32031l0.07768,0.31073v0.93704l-0.10144,0.40577l-0.03209,0.41702l-0.11713,0.3514l-0.02242,0.03523l-0.10619,0.42476l-0.10547,0.47458l-0.00019,0.00248l-0.00108,0.00323l-0.02296,0.10331l-0.03242,0.06485l-0.01812,0.07249l-0.0083,0.00474l-0.15138,0.45415l-0.08346,0.13113l-0.09498,0.3799l-0.13484,0.25283l-0.03794,0.1707l-0.00019,0.00248l-0.00108,0.00323l-0.02294,0.10331l-0.03443,0.06888l-0.05866,0.17598l-0.27558,0.43306l-0.01103,0.19865l-0.25384,0.21759l-0.17949,0.28205l-0.03076,0.00615l-0.00445,0.07987l-0.39159,0.33565l-0.05707,0.0666l-0.0367,0.05504l-0.04749,0.04317l-0.16503,0.19253l-0.09371,0.18741l-0.2722,0.31756l-0.21518,0.35866l-0.70279,0.70279l-0.35866,0.21518l-0.31756,0.2722l-0.93705,0.46853l-0.1828,0.04063l-0.15799,0.10054l-0.17598,0.05866l-0.06887,0.03443l-0.10331,0.02296l-0.00323,0.00108l-0.00248,0.00019l-0.1707,0.03794l-0.25283,0.13484l-0.46853,0.11714h-0.06113l-0.22419,0.04982l-0.58,0.145h-0.07249l-0.07294,0.01622l-0.02433,-0.01622h-2.64138l-0.40577,-0.10144l-0.41702,-0.03208l-0.2566,-0.08553l-0.84011,-0.21004l-0.25283,-0.13485l-0.27973,-0.06215l-0.23426,-0.11714l-0.12484,-0.10698l-0.15483,-0.0553l-0.07372,-0.04915l-0.16461,-0.03292l-0.31407,-0.14877l-0.23023,-0.05117l-0.00248,-0.00019l-0.00323,-0.00108l-0.10331,-0.02296l-0.06888,-0.03443l-0.17598,-0.05866l-0.0323,-0.02055l-0.43376,-0.09638l-0.00248,-0.00019l-0.00323,-0.00108l-0.10331,-0.02296l-0.06485,-0.03243l-0.02325,-0.00581l-0.0239,0.00651l-0.06408,-0.03844l-0.06878,-0.02293l-0.50439,-0.32096l-0.51264,-0.30759l-0.05127,-0.05127l-0.06305,-0.04011l-0.00573,-0.02866l-0.04918,-0.04918l-0.48843,-0.32563l-0.17432,-0.19175l-0.22222,-0.13333l-0.58566,-0.58566l-0.13333,-0.22222l-0.19175,-0.17432l-0.23426,-0.3514l-0.0553,-0.15484l-0.107,-0.12483l-0.04468,-0.08937l-0.14442,-0.21661l-0.14976,-0.41933l-0.20954,-0.39289l-0.11713,-0.46853v-0.06113l-0.04982,-0.22419l-0.145,-0.57999v-0.07249l-0.01621,-0.07296l0.01621,-0.02431v-2.05573l0.07769,-0.31073v-0.3203l0.03944,-0.15778v-0.03109l0.10145,-0.40576l0.03209,-0.41702l0.81991,-2.45975l0.05839,-0.09176l-0.00263,-0.00966l0.05116,-0.08526l0.03427,-0.15414l0.11713,-0.23426l0.2722,-0.31755l0.21518,-0.35866l0.05209,-0.05209l0.00149,-0.00225l0.04469,-0.08937l0.2722,-0.31756l0.21518,-0.35866l0.76136,-0.76136l0.17571,-0.29283l0.23938,-0.23938l0.00434,-0.0781l0.39159,-0.33565l0.33565,-0.39159l0.12961,-0.0072l0.16129,-0.13825l0.32364,-0.16181l0.21661,-0.14441l0.15484,-0.0553l0.12483,-0.10698l0.31669,-0.15834l0.0145,-0.02537l0.07249,-0.01813l0.06484,-0.03242l0.58361,-0.12969l0.57999,-0.145h0.03109l0.15779,-0.03944h0.3203l0.31073,-0.07769h1.44237l0.62026,-0.55498l1.12399,0.08647h0.09306l0.04136,0.01034l0.07827,0.00602l0.06079,-0.03039l0.55195,0.19713l0.56858,0.14215l0.04373,0.07654l0.0986,0.03521l0.21661,0.14441l0.32364,0.16181l0.12484,0.107l0.15484,0.0553l0.70278,0.46853l0.17432,0.19175l0.22222,0.13333l0.05208,0.05209l0.00225,0.00149l0.08937,0.04469l0.31756,0.2722l0.30705,0.18423l0.08723,-0.00602l0.36514,0.33195l0.41633,0.26493l0.02144,0.1072l0.44991,0.26995l0.05126,0.05126l0.06305,0.04012l0.00573,0.02866l0.21773,0.21773l0.32059,0.24044l0.11809,0.14535zM241.62195,176.76158c-0.22524,0 -0.4438,-0.02863 -0.65223,-0.08242l-0.03769,0.01029l-0.06522,-0.03913c-0.30727,-0.09305 -0.59053,-0.24139 -0.83815,-0.43346l-0.10092,-0.02522l-0.41702,-0.03208l-0.30222,-0.10074h-1.13156l-0.15778,0.03945h-0.19526l-0.16383,0.10922l-0.13115,0.04684l-0.05796,0.0966l-0.40996,0.40997l-0.17569,0.29283l-0.58658,0.58659l-0.02538,0.07106l-0.23425,0.35139l-0.14145,0.12858l-0.66372,1.99116l-0.00686,0.0274v0.32031l-0.03944,0.15778v1.43444l0.03944,0.07397l0.02488,0.09946l0.02252,0.06307l0.107,0.12484l0.04468,0.08937l0.00149,0.00223l0.2213,0.2213l0.48842,0.32561l0.17432,0.19175l0.11752,0.07051l0.25899,0.01992l0.3514,0.11714l0.11102,0.07064l0.01573,0.00393l0.00036,0.00064l0.38029,0.07605l0.31407,0.14876l0.33926,0.07539l0.23426,0.11713l0.12483,0.107l0.15484,0.0553l0.11696,0.07798l0.59354,0.14838l0.07395,0.03944h1.98679l0.07395,-0.03944l0.37991,-0.09498l0.13113,-0.08344l0.17598,-0.05866l0.39401,-0.197l0.10567,-0.10567l0.04544,-0.09087l0.2722,-0.31756l0.21518,-0.35866l0.05209,-0.05209l0.07229,-0.10843l0.00221,-0.03982l0.30747,-0.26355l0.0156,-0.03121l0.13825,-0.16129l0.0072,-0.12961l0.19884,-0.17045l0.04436,-0.17741l0.13484,-0.25283l0.03794,-0.1707l0.00019,-0.00248l0.00108,-0.00323l0.02294,-0.10331l0.03443,-0.06888l0.1758,-0.52736l0.02242,-0.03523l0.1062,-0.42476l0.08926,-0.40169v-0.22071l-0.01521,-0.06084l-0.00266,-0.00796l-0.0083,-0.00474l-0.01812,-0.07249l-0.03242,-0.06485l-0.02296,-0.10331l-0.00108,-0.00323l-0.00019,-0.00248l-0.07253,-0.32641l-0.10919,-0.09359l-0.01103,-0.19865l-0.2107,-0.33111l-0.24262,-0.24263l-0.32059,-0.24044l-0.11809,-0.14535l-0.16058,-0.09635l-0.08484,-0.08484l-0.06792,0.00468l-0.36514,-0.33195l-0.41633,-0.26493l-0.02144,-0.1072l-0.38613,-0.23167c-0.10883,0.01387 -0.21973,0.02102 -0.33232,0.02102z" stroke="#000000"/></g></g></svg>