<svg version="1.1" xmlns="http://www.w3.org/2000/svg" xmlns:xlink="http://www.w3.org/1999/xlink" width="66" height="66.82416" viewBox="0,0,66,66.82416"><g transform="translate(-207,-146.85044)"><g data-paper-data="{&quot;isPaintingLayer&quot;:true}" fill="#000000" fill-rule="nonzero" stroke="#000000" stroke-width="2.5" stroke-linecap="butt" stroke-linejoin="miter" stroke-miterlimit="10" stroke-dasharray="" stroke-dashoffset="0" style="mix-blend-mode: normal"><path d="M239.83109,168.84977c-0.58786,0.55154 -1.3408,0.70213 -1.3408,0.70213c-5.64759,1.07105 -9.74487,7.33695 -8.11858,13.25798c0.44677,1.62661 3.63255,3.36202 4.92979,4.15606c2.63662,1.61388 7.09444,3.27782 9.95693,1.12822c1.03126,-0.77443 1.89734,-2.72051 2.43447,-3.70666c1.56033,-5.31168 2.5648,-12.48815 -3.8996,-15.22735c-1.06483,-0.45121 -2.87314,-0.32239 -3.96221,-0.31037zM237.60661,164.63392c0.73994,-0.78348 1.89339,-0.78348 1.89339,-0.78348h0.25c2.11542,0.00937 3.91116,-0.1679 5.95671,0.6903c9.24674,3.87946 9.02657,13.82143 6.6004,21.77265c-1.10782,2.02896 -2.07493,4.38398 -4.06553,5.79334c-5.6228,3.98098 -13.1469,1.28462 -18.01908,-2.52721c-1.43043,-1.11912 -3.98245,-3.36403 -4.59421,-5.18851c-0.37544,-1.1197 -0.10862,-2.35977 -0.12829,-3.54057c-0.13554,-8.13531 3.88033,-14.51057 12.00971,-16.20145c0,0 0.03479,-0.00696 0.0969,-0.01507z"/><path d="M261.17848,151.27925c2.32119,0.92848 1.39272,3.24967 1.39272,3.24967l-0.74107,1.70827c-1.92463,2.84258 -3.84289,4.44404 -6.64647,6.41133c0,0 -2.04808,1.43366 -3.48174,-0.61442c-1.43366,-2.04808 0.61442,-3.48174 0.61442,-3.48174c2.33701,-1.63155 3.80129,-2.71349 5.35353,-5.08867l0.25893,-0.79173c0,0 0.92848,-2.32119 3.24967,-1.39272z"/><path d="M237.75,148.10044c2.5,0 2.5,2.5 2.5,2.5v1.5c-0.0018,1.67646 0.08633,3.35423 0.23973,5.02366c0,0 0.22634,2.48973 -2.26339,2.71607c-2.48973,0.22634 -2.71607,-2.26339 -2.71607,-2.26339c-0.16383,-1.82015 -0.25847,-3.64883 -0.26027,-5.47634v-1.5c0,0 0,-2.5 2.5,-2.5z"/><path d="M215.10374,156.219c1.88144,-1.64626 3.5277,0.23518 3.5277,0.23518l1.69417,1.9383c1.39079,1.39049 2.73582,2.82761 4.04291,4.29705c0,0 1.66091,1.86852 -0.20761,3.52943c-1.86852,1.66091 -3.52943,-0.20761 -3.52943,-0.20761c-1.27785,-1.43864 -2.59661,-2.84218 -3.95709,-4.20295l-1.80583,-2.0617c0,0 -1.64626,-1.88144 0.23518,-3.5277z"/><path d="M208.25,181.85044c0,-2.5 2.5,-2.5 2.5,-2.5h1.5c2.96189,0.00294 5.58882,0.22162 8.49029,0.79855c0,0 2.45145,0.49029 1.96116,2.94174c-0.49029,2.45145 -2.94174,1.96116 -2.94174,1.96116c-2.59032,-0.52138 -4.86126,-0.70431 -7.50971,-0.70145h-1.5c0,0 -2.5,0 -2.5,-2.5z"/><path d="M220.36325,205.93057c-2.08013,-1.38675 -0.69338,-3.46688 -0.69338,-3.46688l0.93386,-1.24469c2.43665,-2.10784 3.58345,-3.80845 6.52823,-5.35463c0,0 2.23607,-1.11803 3.3541,1.11803c1.11803,2.23607 -1.11803,3.3541 -1.11803,3.3541c-2.43598,1.12765 -3.43648,2.84771 -5.47177,4.64537l-0.06614,0.25531c0,0 -1.38675,2.08013 -3.46688,0.69338z"/><path d="M243.36803,211.58651c-2.23607,1.11803 -3.3541,-1.11803 -3.3541,-1.11803l-0.46538,-1.12774c-0.60591,-3.18546 -0.33349,-5.51099 0.24178,-8.6875c0,0 0.44721,-2.45967 2.90689,-2.01246c2.45967,0.44721 2.01246,2.90689 2.01246,2.90689c-0.47269,2.58883 -0.80493,4.24781 -0.25822,6.8125l0.03462,-0.12774c0,0 1.11803,2.23607 -1.11803,3.3541z"/><path d="M267.01777,201.86821c-1.76777,1.76777 -3.53553,0 -3.53553,0l0.41341,0.08172c-3.04432,-1.11487 -5.58635,-2.47539 -8.28239,-4.26936c0,0 -2.08013,-1.38675 -0.69338,-3.46688c1.38675,-2.08013 3.46688,-0.69338 3.46688,-0.69338c2.36819,1.58203 4.53488,2.76295 7.21761,3.73064l1.41341,1.08172c0,0 1.76777,1.76777 0,3.53553z"/><path d="M271.75,177.60044c0,2.5 -2.5,2.5 -2.5,2.5c-2.75,0 -5.75,0 -8.5,0c0,0 -2.5,0 -2.5,-2.5c0,-2.5 2.5,-2.5 2.5,-2.5c2.75,0 5.5,0 8.25,0h0.25c0,0 2.5,0 2.5,2.5z"/></g></g></svg>